<svg width="238" height="211" viewBox="0 0 238 211" fill="none" xmlns="http://www.w3.org/2000/svg">
<g clip-path="url(#clip0_830_29230)">
<path d="M213.385 197.262L209.383 201.126L212.563 195.529C210.057 190.763 205.959 186.645 205.959 186.645C205.959 186.645 197.455 195.188 197.455 201.903C197.455 208.619 201.262 210.964 205.959 210.964C210.655 210.964 214.462 208.619 214.462 201.903C214.409 200.295 214.043 198.716 213.385 197.262Z" fill="#628E62"/>
<path d="M208.356 201.336V201.667C208.337 205.514 207.718 208.517 206.504 210.63C206.487 210.662 206.468 210.691 206.451 210.722L206.315 210.635L206.185 210.55C207.532 208.267 208.009 205.041 208.026 201.685C208.027 201.577 208.029 201.467 208.027 201.357C208.023 199.936 207.94 198.499 207.807 197.103C207.798 196.995 207.787 196.885 207.776 196.775C207.591 194.933 207.326 193.173 207.054 191.644C207.035 191.536 207.015 191.428 206.994 191.321C206.524 188.735 206.044 186.862 205.935 186.448C205.922 186.397 205.915 186.369 205.913 186.363L206.062 186.318L206.063 186.317L206.213 186.272C206.215 186.279 206.241 186.372 206.285 186.546C206.452 187.195 206.887 188.957 207.313 191.28C207.332 191.385 207.352 191.493 207.371 191.602C207.593 192.842 207.81 194.228 207.982 195.684C208.026 196.049 208.065 196.41 208.099 196.765C208.112 196.875 208.123 196.985 208.132 197.093C208.276 198.602 208.35 200.016 208.356 201.336Z" fill="white"/>
<path d="M207.308 191.28C207.204 191.295 207.097 191.309 206.989 191.321C206.697 191.353 206.402 191.368 206.108 191.368C204.854 191.37 203.615 191.077 202.483 190.51C202.417 190.597 202.351 190.683 202.284 190.772C203.475 191.382 204.783 191.698 206.108 191.696C206.422 191.696 206.736 191.679 207.049 191.644C207.155 191.632 207.261 191.618 207.366 191.601C208.23 191.471 209.071 191.204 209.859 190.81C209.791 190.72 209.726 190.631 209.662 190.544C208.916 190.91 208.123 191.158 207.308 191.28Z" fill="white"/>
<path d="M208.097 196.765C207.989 196.772 207.881 196.775 207.773 196.775C207.74 196.777 207.706 196.777 207.673 196.777C206.314 196.777 204.974 196.432 203.77 195.772C202.565 195.112 201.53 194.156 200.753 192.986C200.691 193.083 200.628 193.18 200.567 193.278C201.377 194.462 202.443 195.426 203.679 196.092C204.915 196.757 206.284 197.104 207.673 197.104C207.717 197.104 207.761 197.104 207.804 197.103C207.914 197.101 208.022 197.098 208.129 197.093C209.798 197.003 211.406 196.412 212.763 195.389C212.713 195.292 212.663 195.195 212.611 195.099C211.293 196.103 209.724 196.682 208.097 196.765Z" fill="white"/>
<path d="M208.358 201.336C208.249 201.346 208.139 201.352 208.03 201.357C207.913 201.362 207.795 201.365 207.678 201.365C205.852 201.363 204.075 200.74 202.614 199.591C201.153 198.441 200.086 196.826 199.574 194.987C199.504 195.12 199.433 195.251 199.366 195.384C199.944 197.218 201.057 198.815 202.55 199.948C204.042 201.08 205.836 201.691 207.678 201.693C207.795 201.693 207.913 201.691 208.028 201.685C208.139 201.681 208.249 201.675 208.358 201.667C210.568 201.485 212.629 200.43 214.124 198.715C214.092 198.594 214.054 198.475 214.017 198.353C212.572 200.081 210.542 201.151 208.358 201.336Z" fill="white"/>
<path d="M179.917 52.097L180.085 48.7467L180.942 52.4713C183.864 53.3946 187.202 53.3591 187.202 53.3591C187.202 53.3591 187.427 46.1011 184.795 43.2776C182.162 40.4541 179.642 41.1096 177.667 43.1343C175.693 45.1591 175.011 47.7863 177.644 50.6098C178.297 51.2631 179.07 51.7692 179.917 52.097Z" fill="#628E62"/>
<path d="M180.437 48.2162L180.307 48.077C178.806 46.4512 177.89 44.9222 177.571 43.5099C177.566 43.4894 177.563 43.4689 177.558 43.4484L177.649 43.4263L177.737 43.4062C178.065 44.9467 179.13 46.5088 180.439 47.9273C180.48 47.9734 180.523 48.0202 180.566 48.0657C181.125 48.6611 181.724 49.2296 182.327 49.7593C182.373 49.8007 182.421 49.8422 182.469 49.8836C183.268 50.5785 184.07 51.204 184.784 51.7296C184.834 51.7669 184.885 51.8037 184.935 51.8397C186.147 52.7241 187.083 53.3048 187.292 53.4319C187.317 53.4479 187.331 53.4562 187.334 53.4583L187.289 53.5409V53.5423L187.243 53.6256C187.24 53.6235 187.192 53.5956 187.106 53.5415C186.781 53.3407 185.908 52.7874 184.817 51.9943C184.768 51.9583 184.717 51.9216 184.667 51.8842C184.087 51.4583 183.453 50.9691 182.81 50.4314C182.648 50.2966 182.49 50.1619 182.336 50.0272C182.288 49.9864 182.241 49.945 182.194 49.9036C181.542 49.331 180.956 48.7686 180.437 48.2162Z" fill="white"/>
<path d="M184.818 51.9935C184.856 51.9422 184.895 51.8901 184.936 51.8388C185.046 51.6993 185.164 51.5658 185.287 51.4389C185.814 50.8973 186.45 50.4865 187.148 50.2368C187.142 50.172 187.136 50.1072 187.129 50.041C186.389 50.2981 185.716 50.7291 185.159 51.3011C185.027 51.4366 184.902 51.5793 184.784 51.7287C184.744 51.7793 184.705 51.8314 184.667 51.8834C184.355 52.3107 184.106 52.7852 183.93 53.2908C183.993 53.2997 184.056 53.3086 184.117 53.3175C184.287 52.8424 184.523 52.3962 184.818 51.9935Z" fill="white"/>
<path d="M182.336 50.0259C182.379 49.9767 182.423 49.9288 182.468 49.8823C182.482 49.8675 182.496 49.8527 182.51 49.8385C183.081 49.2524 183.779 48.82 184.545 48.578C185.31 48.336 186.12 48.2917 186.905 48.4488C186.893 48.3812 186.882 48.3136 186.869 48.246C186.064 48.0972 185.238 48.1516 184.457 48.4046C183.677 48.6575 182.965 49.1019 182.381 49.7007C182.363 49.7196 182.344 49.7385 182.327 49.758C182.281 49.8059 182.237 49.8537 182.194 49.9023C181.528 50.6593 181.083 51.6016 180.914 52.6165C180.973 52.6356 181.032 52.6547 181.092 52.6731C181.252 51.6825 181.685 50.7625 182.336 50.0259Z" fill="white"/>
<path d="M180.436 48.2158C180.478 48.1645 180.522 48.1145 180.566 48.0653C180.613 48.0127 180.661 47.9608 180.71 47.9103C181.479 47.1237 182.47 46.6194 183.535 46.473C184.6 46.3265 185.682 46.5457 186.618 47.0978C186.596 47.0117 186.574 46.9262 186.55 46.8415C185.588 46.3192 184.494 46.128 183.422 46.2951C182.351 46.4623 181.357 46.9792 180.582 47.7725C180.533 47.823 180.484 47.8742 180.438 47.9268C180.393 47.9761 180.349 48.026 180.306 48.0766C179.448 49.1054 178.995 50.4376 179.039 51.8035C179.1 51.8403 179.163 51.8745 179.226 51.9093C179.156 50.56 179.59 49.2351 180.436 48.2158Z" fill="white"/>
<path d="M58.5281 76.9945L58.696 73.6442L59.553 77.3688C62.4752 78.292 65.8133 78.2566 65.8133 78.2566C65.8133 78.2566 66.0389 70.9985 63.406 68.175C60.773 65.3515 58.2531 66.007 56.2785 68.0318C54.304 70.0565 53.6227 72.6838 56.2556 75.5073C56.9083 76.1605 57.6817 76.6667 58.5281 76.9945Z" fill="#628E62"/>
<path d="M59.0482 73.1127L58.9184 72.9735C57.4177 71.3477 56.5009 69.8187 56.1826 68.4064C56.1776 68.3859 56.1739 68.3654 56.1689 68.3449L56.2601 68.3228L56.3481 68.3027C56.6767 69.8432 57.7414 71.4053 59.0499 72.8238C59.0917 72.8699 59.1341 72.9167 59.1778 72.9622C59.7368 73.5575 60.335 74.1261 60.9383 74.6558C60.9846 74.6972 61.0323 74.7387 61.0799 74.7801C61.8796 75.475 62.6813 76.1005 63.3951 76.626C63.4454 76.6634 63.4963 76.7002 63.5466 76.7362C64.7582 77.6206 65.6943 78.2012 65.9028 78.3284C65.928 78.3444 65.9422 78.3527 65.9454 78.3548L65.9003 78.4374V78.4388L65.8546 78.522C65.8514 78.52 65.8036 78.4921 65.7171 78.438C65.3924 78.2372 64.5191 77.6839 63.4287 76.8908C63.3796 76.8548 63.3287 76.8181 63.2784 76.7807C62.6988 76.3548 62.0639 75.8656 61.4211 75.3279C61.2594 75.1931 61.1017 75.0584 60.9478 74.9237C60.8995 74.8829 60.8518 74.8415 60.8055 74.8001C60.1533 74.2275 59.5675 73.665 59.0482 73.1127Z" fill="white"/>
<path d="M63.4289 76.89C63.4671 76.8386 63.506 76.7866 63.5469 76.7353C63.6576 76.5958 63.775 76.4623 63.8988 76.3353C64.4255 75.7937 65.0615 75.383 65.7597 75.1333C65.7533 75.0685 65.7468 75.0037 65.7404 74.9375C65.0007 75.1946 64.3269 75.6256 63.7703 76.1975C63.6382 76.3331 63.513 76.4758 63.3953 76.6252C63.3551 76.6758 63.3162 76.7278 63.2786 76.7799C62.9662 77.2071 62.7175 77.6817 62.541 78.1873C62.6046 78.1962 62.6669 78.2051 62.7279 78.214C62.8981 77.7389 63.1343 77.2927 63.4289 76.89Z" fill="white"/>
<path d="M60.9485 74.9234C60.9913 74.8741 61.0353 74.8263 61.0807 74.7798C61.0938 74.7649 61.1083 74.7501 61.1221 74.736C61.6936 74.1499 62.3918 73.7174 63.1571 73.4754C63.9224 73.2335 64.7322 73.1892 65.5174 73.3463C65.5058 73.2787 65.4941 73.2111 65.4812 73.1435C64.6768 72.9947 63.8501 73.049 63.0697 73.302C62.2893 73.555 61.5776 73.9993 60.9936 74.5982C60.9752 74.617 60.9568 74.6359 60.939 74.6555C60.8937 74.7033 60.8496 74.7512 60.8062 74.7997C60.1399 75.5568 59.6955 76.4991 59.5264 77.5139C59.5853 77.533 59.6442 77.5521 59.7038 77.5705C59.8643 76.5799 60.2968 75.66 60.9485 74.9234Z" fill="white"/>
<path d="M59.0474 73.1123C59.0896 73.061 59.133 73.0111 59.1771 72.9618C59.2244 72.9093 59.2724 72.8573 59.3217 72.8068C60.0905 72.0202 61.0816 71.5159 62.1467 71.3695C63.2117 71.223 64.2933 71.4422 65.2296 71.9943C65.2071 71.9082 65.1853 71.8228 65.1615 71.738C64.1996 71.2157 63.1052 71.0245 62.0338 71.1916C60.9624 71.3588 59.9684 71.8757 59.1932 72.669C59.1439 72.7195 59.0953 72.7708 59.0492 72.8234C59.0038 72.8726 58.9604 72.9225 58.9176 72.9731C58.0597 74.0019 57.6067 75.3342 57.6503 76.7001C57.7117 76.737 57.7744 76.7711 57.8377 76.8059C57.7676 75.4566 58.2015 74.1317 59.0474 73.1123Z" fill="white"/>
<path d="M78.7996 34.4876L78.9675 31.1373L79.8245 34.8619C82.7466 35.7852 86.0847 35.7498 86.0847 35.7498C86.0847 35.7498 86.3104 28.4917 83.6774 25.6682C81.0445 22.8447 78.5245 23.5002 76.55 25.525C74.5755 27.5497 73.8942 30.1769 76.5271 33.0004C77.1798 33.6537 77.9532 34.1598 78.7996 34.4876Z" fill="#628E62"/>
<path d="M79.3197 30.6059L79.1899 30.4667C77.6892 28.8409 76.7724 27.3119 76.4541 25.8996C76.4491 25.8791 76.4454 25.8586 76.4404 25.8381L76.5316 25.816L76.6196 25.7959C76.9482 27.3364 78.0129 28.8985 79.3214 30.317C79.3632 30.3631 79.4056 30.4099 79.4493 30.4554C80.0083 31.0508 80.6066 31.6193 81.2098 32.149C81.2562 32.1905 81.3038 32.2319 81.3515 32.2733C82.1511 32.9683 82.9529 33.5937 83.6666 34.1193C83.7169 34.1567 83.7678 34.1934 83.8182 34.2294C85.0298 35.1138 85.9658 35.6945 86.1744 35.8217C86.1995 35.8376 86.2137 35.846 86.217 35.848L86.1719 35.9307V35.932L86.1262 36.0153C86.1229 36.0132 86.0752 35.9854 85.9887 35.9312C85.6639 35.7305 84.7906 35.1771 83.7002 34.3841C83.6512 34.3481 83.6002 34.3114 83.55 34.274C82.9703 33.8481 82.3354 33.3589 81.6926 32.8211C81.531 32.6864 81.3732 32.5516 81.2193 32.4169C81.171 32.3762 81.1234 32.3347 81.077 32.2933C80.4248 31.7207 79.8391 31.1583 79.3197 30.6059Z" fill="white"/>
<path d="M83.7013 34.3831C83.7396 34.3318 83.7785 34.2798 83.8193 34.2285C83.93 34.0889 84.0475 33.9554 84.1712 33.8285C84.698 33.2869 85.334 32.8761 86.0322 32.6265C86.0257 32.5617 86.0193 32.4968 86.0129 32.4307C85.2732 32.6878 84.5993 33.1188 84.0428 33.6907C83.9107 33.8262 83.7855 33.969 83.6678 34.1183C83.6276 34.169 83.5887 34.221 83.5511 34.273C83.2387 34.7003 82.99 35.1748 82.8135 35.6804C82.8771 35.6893 82.9394 35.6982 83.0003 35.7071C83.1706 35.232 83.4068 34.7859 83.7013 34.3831Z" fill="white"/>
<path d="M81.2201 32.4165C81.2628 32.3673 81.3069 32.3194 81.3522 32.2729C81.3654 32.2581 81.3798 32.2433 81.3936 32.2291C81.9651 31.6431 82.6633 31.2106 83.4287 30.9686C84.194 30.7266 85.0038 30.6823 85.7891 30.8395C85.7774 30.7719 85.7658 30.7043 85.7529 30.6366C84.9484 30.4879 84.1218 30.5422 83.3413 30.7952C82.5609 31.0482 81.8492 31.4925 81.2651 32.0913C81.2467 32.1102 81.2283 32.1291 81.2106 32.1486C81.1652 32.1965 81.1212 32.2443 81.0778 32.2929C80.4114 33.0499 79.967 33.9922 79.7979 35.007C79.8568 35.0261 79.9157 35.0452 79.9753 35.0636C80.1358 34.0731 80.5684 33.1531 81.2201 32.4165Z" fill="white"/>
<path d="M79.3131 30.6054C79.3552 30.5541 79.3986 30.5042 79.4427 30.455C79.49 30.4024 79.538 30.3505 79.5873 30.2999C80.3561 29.5134 81.3473 29.0091 82.4123 28.8626C83.4773 28.7162 84.5589 28.9354 85.4952 29.4875C85.4727 29.4013 85.4509 29.3159 85.4271 29.2311C84.4652 28.7088 83.3708 28.5177 82.2994 28.6848C81.228 28.8519 80.2341 29.3689 79.4588 30.1621C79.4095 30.2127 79.3609 30.2639 79.3148 30.3165C79.2695 30.3657 79.226 30.4156 79.1833 30.4662C78.3254 31.4951 77.8724 32.8273 77.916 34.1932C77.9773 34.23 78.04 34.2642 78.1033 34.299C78.0332 32.9497 78.4671 31.6248 79.3131 30.6054Z" fill="white"/>
<path d="M32.6198 186.924L25.6859 193.618L31.1964 183.922C26.8549 175.666 19.7544 168.531 19.7544 168.531C19.7544 168.531 5.02344 183.331 5.02344 194.965C5.02344 206.599 11.6187 210.661 19.7544 210.661C27.8901 210.661 34.4853 206.599 34.4853 194.965C34.4853 192.376 33.7545 189.629 32.6198 186.924Z" fill="#628E62"/>
<path d="M23.91 193.98V194.554C23.8775 201.219 22.8055 206.42 20.702 210.082C20.6722 210.136 20.6398 210.187 20.61 210.241L20.3744 210.091L20.1498 209.943C22.4833 205.989 23.309 200.399 23.3388 194.585C23.3415 194.398 23.3442 194.207 23.3415 194.017C23.3334 191.556 23.1899 189.066 22.9598 186.648C22.9435 186.46 22.9246 186.27 22.9056 186.08C22.5862 182.889 22.126 179.84 21.6549 177.191C21.6225 177.004 21.5873 176.817 21.5521 176.632C20.7372 172.153 19.9061 168.908 19.7166 168.189C19.695 168.101 19.6814 168.053 19.6787 168.042L19.9359 167.965L19.9386 167.962L20.1985 167.886C20.2012 167.897 20.2472 168.059 20.323 168.36C20.6127 169.484 21.3653 172.536 22.1043 176.561C22.1368 176.743 22.172 176.93 22.2045 177.118C22.5889 179.267 22.9652 181.668 23.263 184.189C23.3388 184.822 23.4065 185.447 23.466 186.063C23.4877 186.253 23.5066 186.443 23.5229 186.631C23.7719 189.245 23.901 191.695 23.91 193.98Z" fill="white"/>
<path d="M22.1 176.561C21.9186 176.586 21.7345 176.612 21.5477 176.632C21.0405 176.687 20.5309 176.714 20.0209 176.714C17.8476 176.717 15.7014 176.209 13.7403 175.227C13.6266 175.377 13.5129 175.527 13.3965 175.681C15.4595 176.737 17.7253 177.284 20.0209 177.282C20.5653 177.282 21.1093 177.251 21.6506 177.191C21.8347 177.171 22.0188 177.146 22.2002 177.117C23.6974 176.892 25.1533 176.43 26.5181 175.746C26.4017 175.59 26.288 175.437 26.177 175.286C24.8853 175.919 23.5114 176.349 22.1 176.561Z" fill="white"/>
<path d="M23.463 186.063C23.2762 186.074 23.0894 186.08 22.9026 186.08C22.8458 186.083 22.7862 186.083 22.7294 186.083C20.3745 186.083 18.0545 185.486 15.9672 184.342C13.88 183.199 12.0873 181.543 10.7421 179.517C10.6338 179.684 10.5255 179.852 10.4199 180.022C11.8221 182.073 13.67 183.744 15.8106 184.896C17.9512 186.049 20.323 186.651 22.7294 186.651C22.8052 186.651 22.881 186.651 22.9568 186.648C23.1463 186.645 23.3331 186.639 23.5198 186.631C26.4103 186.475 29.1969 185.45 31.5466 183.678C31.4599 183.511 31.3733 183.343 31.284 183.176C29.0004 184.916 26.2823 185.919 23.463 186.063Z" fill="white"/>
<path d="M23.9051 193.981C23.7156 193.998 23.5261 194.009 23.3366 194.018C23.1336 194.026 22.9305 194.032 22.7275 194.032C19.5632 194.028 16.4851 192.95 13.9543 190.958C11.4234 188.966 9.57582 186.168 8.68818 182.983C8.56636 183.213 8.44453 183.44 8.32812 183.67C9.32825 186.848 11.2578 189.614 13.8428 191.576C16.4277 193.538 19.5365 194.596 22.7275 194.6C22.9305 194.6 23.1336 194.597 23.3339 194.586C23.5261 194.58 23.7156 194.569 23.9051 194.555C27.7328 194.241 31.3036 192.413 33.8945 189.442C33.8377 189.232 33.7727 189.024 33.7077 188.814C31.2052 191.808 27.689 193.661 23.9051 193.981Z" fill="white"/>
<path d="M210.713 130.006C220.761 120.785 225.194 108.861 220.613 103.371C216.033 97.8816 204.174 100.906 194.125 110.126C184.077 119.347 179.644 131.271 184.225 136.761C188.805 142.25 200.664 139.226 210.713 130.006Z" fill="#FFCEBF"/>
<path d="M62.2374 136.76C66.818 131.27 62.3854 119.346 52.3369 110.125C42.2884 100.905 30.4292 97.8806 25.8486 103.37C21.268 108.859 25.7006 120.784 35.7491 130.004C45.7976 139.225 57.6568 142.249 62.2374 136.76Z" fill="#FFCEBF"/>
<path d="M84.8649 210.393C98.2171 210.393 109.041 204.479 109.041 197.185C109.041 189.891 98.2171 183.978 84.8649 183.978C71.5126 183.978 60.6885 189.891 60.6885 197.185C60.6885 204.479 71.5126 210.393 84.8649 210.393Z" fill="#FFCEBF"/>
<path d="M161.589 210.393C174.942 210.393 185.766 204.479 185.766 197.185C185.766 189.891 174.942 183.978 161.589 183.978C148.237 183.978 137.413 189.891 137.413 197.185C137.413 204.479 148.237 210.393 161.589 210.393Z" fill="#FFCEBF"/>
<path d="M123.232 192.175C90.5036 192.175 63.877 164.253 63.877 129.933C63.877 95.6122 90.5036 67.6904 123.232 67.6904C155.961 67.6904 182.587 95.6122 182.587 129.933C182.587 164.253 155.961 192.175 123.232 192.175ZM123.232 68.2977C90.8229 68.2977 64.456 95.9471 64.456 129.933C64.456 163.919 90.8229 191.568 123.232 191.568C155.641 191.568 182.008 163.919 182.008 129.933C182.008 95.9471 155.641 68.2977 123.232 68.2977Z" fill="#3F3D56"/>
<path opacity="0.1" d="M108.758 171.389C96.7834 167.069 86.7131 158.335 80.4191 146.812C74.1252 135.29 72.036 121.762 74.5401 108.745C71.218 115.725 69.3559 123.369 69.0784 131.164C68.8008 138.96 70.1142 146.728 72.9307 153.948C75.7472 161.169 80.0018 167.675 85.4098 173.032C90.8178 178.389 97.2544 182.473 104.289 185.011C111.324 187.548 118.794 188.481 126.2 187.747C133.606 187.012 140.778 184.628 147.234 180.752C153.69 176.877 159.283 171.6 163.638 165.275C167.992 158.95 171.009 151.723 172.485 144.077C166.822 155.955 157.239 165.272 145.517 170.295C133.795 175.319 120.732 175.708 108.758 171.389Z" fill="#FFCEBF"/>
<path d="M105.746 124.973C102.741 124.973 100.297 121.637 100.297 117.537C100.297 113.437 102.741 110.102 105.746 110.102C108.751 110.102 111.195 113.437 111.195 117.537C111.195 121.637 108.751 124.973 105.746 124.973Z" fill="#3F3D56"/>
<path d="M138.756 124.973C135.751 124.973 133.307 121.637 133.307 117.537C133.307 113.437 135.751 110.102 138.756 110.102C141.76 110.102 144.205 113.437 144.205 117.537C144.205 121.637 141.76 124.973 138.756 124.973Z" fill="#3F3D56"/>
<path d="M119.466 10.9137C122.345 10.9137 124.678 9.14652 124.678 6.96661C124.678 4.7867 122.345 3.01953 119.466 3.01953C116.588 3.01953 114.255 4.7867 114.255 6.96661C114.255 9.14652 116.588 10.9137 119.466 10.9137Z" fill="#2F2E41"/>
<path d="M119.466 4.8242C121.225 4.8242 122.651 3.74427 122.651 2.4121C122.651 1.07993 121.225 0 119.466 0C117.707 0 116.281 1.07993 116.281 2.4121C116.281 3.74427 117.707 4.8242 119.466 4.8242Z" fill="#2F2E41"/>
<path d="M115.717 8.54372C113.924 6.6638 113.357 4.12916 114.251 2.49805C114.039 2.62504 113.843 2.78095 113.67 2.96171C112.2 4.50314 112.658 7.48294 114.693 9.61719C116.729 11.7515 119.57 12.2321 121.04 10.6906C121.212 10.5087 121.361 10.3037 121.482 10.0809C119.927 11.0186 117.51 10.4236 115.717 8.54372Z" fill="#2F2E41"/>
<path d="M65.8236 106.241L63.9932 103.052L74.8526 94.1299L77.5543 98.8366L65.8236 106.241Z" fill="#FFCEBF"/>
<path d="M63.3362 108.914L57.4336 98.6312L57.5576 98.5529C58.5699 97.914 59.7828 97.7229 60.9294 98.0217C62.076 98.3204 63.0625 99.0846 63.6719 100.146L63.6721 100.146L67.2772 106.427L63.3362 108.914Z" fill="#2F2E41"/>
<path d="M180.224 101.99L182.054 98.8007L171.195 89.8789L168.493 94.5856L180.224 101.99Z" fill="#FFCEBF"/>
<path d="M178.765 102.177L182.37 95.8963L182.37 95.896C182.979 94.8346 183.966 94.0704 185.112 93.7717C186.259 93.4729 187.472 93.664 188.484 94.3029L188.608 94.3812L182.706 104.664L178.765 102.177Z" fill="#2F2E41"/>
<path d="M109.253 59.4287L108.562 62.3241L89.9066 77.9846L69.8301 97.6596L71.9834 102.91L119.837 69.3241L173.787 98.6497L176.198 92.8612L151.578 75.5556L131.218 60.8324L109.253 59.4287Z" fill="#2F2E41"/>
<path d="M115.533 28.4512L107.47 31.2253L108.56 62.0249C108.56 62.0249 122.583 70.8538 131.217 60.832V30.0258L126.402 28.4512H115.533Z" fill="#E47BB2"/>
<path d="M129.429 32.1439L131.218 30.0264C131.218 30.0264 136.194 31.9323 135.779 37.6521C135.364 43.3719 132.44 61.564 132.44 61.564L131.89 73.4304H126.695L128.766 42.7424L129.429 32.1439Z" fill="#E47BB2"/>
<path d="M109.738 33.0551L107.949 30.9375C107.949 30.9375 102.973 32.8435 103.388 38.5633C103.803 44.2831 106.727 62.4752 106.727 62.4752L107.277 74.3416H112.472L110.401 43.6535L109.738 33.0551Z" fill="#E47BB2"/>
<path d="M109.911 79.2285C111.67 79.2285 113.096 77.7332 113.096 75.8887C113.096 74.0441 111.67 72.5488 109.911 72.5488C108.152 72.5488 106.727 74.0441 106.727 75.8887C106.727 77.7332 108.152 79.2285 109.911 79.2285Z" fill="#FFCEBF"/>
<path d="M129.312 79.2285C131.071 79.2285 132.497 77.7332 132.497 75.8887C132.497 74.0441 131.071 72.5488 129.312 72.5488C127.553 72.5488 126.127 74.0441 126.127 75.8887C126.127 77.7332 127.553 79.2285 129.312 79.2285Z" fill="#FFCEBF"/>
<path d="M119.33 25.9231C124.202 25.9231 128.151 21.7819 128.151 16.6735C128.151 11.565 124.202 7.42383 119.33 7.42383C114.459 7.42383 110.51 11.565 110.51 16.6735C110.51 21.7819 114.459 25.9231 119.33 25.9231Z" fill="#2F2E41"/>
<path d="M119.597 26.228C123.524 26.228 126.708 22.8893 126.708 18.7707C126.708 14.6522 123.524 11.3135 119.597 11.3135C115.669 11.3135 112.485 14.6522 112.485 18.7707C112.485 22.8893 115.669 26.228 119.597 26.228Z" fill="#FFCEBF"/>
<path d="M112.124 14.0803C113.749 15.2548 115.678 15.8798 117.652 15.8716C116.947 16.3835 116.146 16.7292 115.302 16.8851C117.926 17.4753 120.638 17.4913 123.269 16.932C123.853 16.8337 124.417 16.6305 124.936 16.3314C125.195 16.1799 125.42 15.9731 125.598 15.7244C125.775 15.4757 125.9 15.1906 125.966 14.8877C126.14 13.8407 125.362 12.8894 124.554 12.2483C123.316 11.2817 121.889 10.6158 120.375 10.2986C118.862 9.98148 117.3 10.0211 115.803 10.4145C114.825 10.6795 113.846 11.1272 113.211 11.9505C112.576 12.7737 112.388 14.0429 112.993 14.8906L112.124 14.0803Z" fill="#2F2E41"/>
<path d="M237.71 211H0.289538C0.212748 211 0.139102 210.968 0.0848034 210.911C0.0305046 210.854 0 210.777 0 210.696C0 210.616 0.0305046 210.538 0.0848034 210.482C0.139102 210.425 0.212748 210.393 0.289538 210.393H237.71C237.787 210.393 237.861 210.425 237.915 210.482C237.969 210.538 238 210.616 238 210.696C238 210.777 237.969 210.854 237.915 210.911C237.861 210.968 237.787 211 237.71 211Z" fill="#628E62"/>
<path d="M114.255 154.223C114.255 156.477 115.109 158.64 116.629 160.234C118.15 161.828 120.212 162.724 122.362 162.724C124.512 162.724 126.574 161.828 128.095 160.234C129.615 158.64 130.469 156.477 130.469 154.223H114.255Z" fill="#3F3D56"/>
<path d="M152.225 143.596C156.063 143.596 159.174 140.334 159.174 136.309C159.174 132.285 156.063 129.022 152.225 129.022C148.387 129.022 145.276 132.285 145.276 136.309C145.276 140.334 148.387 143.596 152.225 143.596Z" fill="#FFCEBF"/>
<path d="M92.28 143.596C96.1177 143.596 99.2289 140.334 99.2289 136.309C99.2289 132.285 96.1177 129.022 92.28 129.022C88.4422 129.022 85.3311 132.285 85.3311 136.309C85.3311 140.334 88.4422 143.596 92.28 143.596Z" fill="#FFCEBF"/>
</g>
<defs>
<clipPath id="clip0_830_29230">
<rect width="238" height="211" fill="white"/>
</clipPath>
</defs>
</svg>
