<svg width="177" height="96" viewBox="0 0 177 96" fill="none" xmlns="http://www.w3.org/2000/svg">
<g opacity="0.2">
<path opacity="0.2" d="M134.3 10.9326H44.0449V69.2959H134.3V10.9326Z" fill="#D9FAFF"/>
<path opacity="0.2" d="M81.9473 12.0898L68.0272 39.4531H60.1113L74.0323 12.0898H81.9473Z" fill="white"/>
<path opacity="0.2" d="M69.7314 12.0898L55.8113 39.4531H51.2285L65.1477 12.0898H69.7314Z" fill="white"/>
<path opacity="0.2" d="M128.797 11.8428L114.876 39.206H106.961L120.882 11.8428H128.797Z" fill="white"/>
<path opacity="0.2" d="M116.574 11.8428L102.655 39.206H98.0723L111.991 11.8428H116.574Z" fill="white"/>
<path opacity="0.2" d="M128.797 41.1895L114.876 68.5522H106.961L120.882 41.1895H128.797Z" fill="white"/>
<path opacity="0.2" d="M116.574 41.1895L102.655 68.5522H98.0723L111.991 41.1895H116.574Z" fill="white"/>
<path opacity="0.2" d="M81.9473 41.1895L68.0272 68.5522H60.1113L74.0323 41.1895H81.9473Z" fill="white"/>
<path opacity="0.2" d="M69.7314 41.1895L55.8113 68.5522H51.2285L65.1477 41.1895H69.7314Z" fill="white"/>
<path opacity="0.2" d="M90.7637 69.4385V12.0296C90.7637 11.7889 90.4515 11.5938 90.0661 11.5938H88.1527C87.7673 11.5938 87.4551 11.7889 87.4551 12.0296V69.4385C87.4551 69.6793 87.7673 69.8743 88.1527 69.8743H90.0661C90.4515 69.8743 90.7637 69.6793 90.7637 69.4385Z" fill="#E2B38E"/>
<path opacity="0.2" d="M42.459 11.8645V69.2734C42.459 69.5142 42.7713 69.7092 43.1566 69.7092H45.07C45.4553 69.7092 45.7676 69.5142 45.7676 69.2734V11.8645C45.7676 11.6238 45.4553 11.4287 45.07 11.4287H43.1566C42.7713 11.4287 42.459 11.6238 42.459 11.8645Z" fill="#E2B38E"/>
<path opacity="0.2" d="M132.709 11.8645V69.2734C132.709 69.5142 133.021 69.7092 133.407 69.7092H135.32C135.705 69.7092 136.018 69.5142 136.018 69.2734V11.8645C136.018 11.6238 135.705 11.4287 135.32 11.4287H133.407C133.021 11.4287 132.709 11.6238 132.709 11.8645Z" fill="#E2B38E"/>
<path opacity="0.2" d="M89.9318 70.1466H88.0185C87.7176 70.1466 87.4298 70.0719 87.217 69.939C87.0042 69.8061 86.8848 69.6263 86.8848 69.4384V12.0295C86.8848 11.8416 87.0042 11.6615 87.217 11.5287C87.4298 11.3959 87.7176 11.3213 88.0185 11.3213H89.9318C90.2327 11.3213 90.5205 11.3959 90.7332 11.5287C90.946 11.6615 91.0655 11.8416 91.0655 12.0295V69.4384C91.0655 69.6263 90.946 69.8061 90.7332 69.939C90.5205 70.0719 90.2327 70.1466 89.9318 70.1466ZM88.0193 11.866C87.9496 11.866 87.8833 11.8833 87.8345 11.9139C87.7856 11.9445 87.7577 11.9861 87.7577 12.0295V69.4384C87.7577 69.482 87.7856 69.5234 87.8345 69.5539C87.8833 69.5844 87.9496 69.6018 88.0193 69.6018H89.9327C90.0024 69.6018 90.0687 69.5844 90.1176 69.5539C90.1664 69.5234 90.1943 69.482 90.1943 69.4384V12.0295C90.1943 11.9861 90.1664 11.9445 90.1176 11.9139C90.0687 11.8833 90.0024 11.866 89.9327 11.866H88.0193Z" fill="#385868"/>
<path opacity="0.2" d="M44.9348 69.9815H43.0224C42.7217 69.9815 42.4334 69.9069 42.2208 69.774C42.0081 69.6411 41.8887 69.4613 41.8887 69.2733V11.8644C41.8887 11.6766 42.0081 11.4965 42.2208 11.3637C42.4334 11.2309 42.7217 11.1562 43.0224 11.1562H44.9357C45.2364 11.1562 45.5247 11.2309 45.7373 11.3637C45.9499 11.4965 46.0694 11.6766 46.0694 11.8644V69.2733C46.0694 69.3665 46.04 69.4586 45.9831 69.5446C45.926 69.6307 45.8424 69.7086 45.7371 69.7745C45.6317 69.8399 45.5066 69.8922 45.369 69.9276C45.2313 69.9635 45.0838 69.9815 44.9348 69.9815ZM43.0224 11.701C42.953 11.701 42.8864 11.7182 42.8374 11.7489C42.7883 11.7795 42.7607 11.8211 42.7607 11.8644V69.2733C42.7607 69.3169 42.7883 69.3583 42.8374 69.3888C42.8864 69.4193 42.953 69.4368 43.0224 69.4368H44.9357C45.0051 69.4368 45.0717 69.4193 45.1207 69.3888C45.1698 69.3583 45.1973 69.3169 45.1973 69.2733V11.8644C45.1973 11.8211 45.1698 11.7795 45.1207 11.7489C45.0717 11.7182 45.0051 11.701 44.9357 11.701H43.0224Z" fill="#385868"/>
<path opacity="0.2" d="M135.19 69.9815H133.276C132.975 69.9815 132.688 69.9069 132.475 69.774C132.262 69.6411 132.143 69.4613 132.143 69.2733V11.8644C132.143 11.6766 132.262 11.4965 132.475 11.3637C132.688 11.2309 132.975 11.1562 133.276 11.1562H135.19C135.49 11.1562 135.779 11.2309 135.991 11.3637C136.204 11.4965 136.323 11.6766 136.323 11.8644V69.2733C136.323 69.4613 136.204 69.6411 135.991 69.774C135.779 69.9069 135.49 69.9815 135.19 69.9815ZM133.276 11.701C133.207 11.701 133.14 11.7182 133.091 11.7489C133.043 11.7795 133.015 11.8211 133.015 11.8644V69.2733C133.015 69.3169 133.043 69.3583 133.091 69.3888C133.14 69.4193 133.207 69.4368 133.276 69.4368H135.19C135.259 69.4368 135.326 69.4193 135.374 69.3888C135.424 69.3583 135.451 69.3169 135.451 69.2733V11.8644C135.451 11.8211 135.424 11.7795 135.374 11.7489C135.326 11.7182 135.259 11.701 135.19 11.701H133.276Z" fill="#385868"/>
<path opacity="0.2" d="M136.116 9.85742H42.6273C42.2421 9.85742 41.9297 10.0526 41.9297 10.2932V11.4884C41.9297 11.7291 42.2421 11.9242 42.6273 11.9242H136.116C136.501 11.9242 136.813 11.7291 136.813 11.4884V10.2932C136.813 10.0526 136.501 9.85742 136.116 9.85742Z" fill="#E2B38E"/>
<path opacity="0.2" d="M135.98 12.1975H42.4931C42.1924 12.1975 41.9041 12.1229 41.6915 11.9901C41.4788 11.8573 41.3594 11.6772 41.3594 11.4893V10.2941C41.3594 10.1063 41.4788 9.92619 41.6915 9.79338C41.9041 9.66057 42.1924 9.58594 42.4931 9.58594H135.98C136.281 9.58594 136.569 9.66057 136.781 9.79338C136.994 9.92619 137.113 10.1063 137.113 10.2941V11.4893C137.113 11.6772 136.994 11.8573 136.781 11.9901C136.569 12.1229 136.281 12.1975 135.98 12.1975ZM42.4931 10.1307C42.4237 10.1307 42.3572 10.1479 42.3081 10.1786C42.259 10.2092 42.2315 10.2508 42.2315 10.2941V11.4893C42.2315 11.5327 42.259 11.5743 42.3081 11.6049C42.3572 11.6355 42.4237 11.6528 42.4931 11.6528H135.98C136.05 11.6528 136.116 11.6355 136.165 11.6049C136.214 11.5743 136.241 11.5327 136.241 11.4893V10.2941C136.241 10.2508 136.214 10.2092 136.165 10.1786C136.116 10.1479 136.05 10.1307 135.98 10.1307H42.4931Z" fill="#385868"/>
<path opacity="0.2" d="M136.116 68.2217H42.6273C42.2421 68.2217 41.9297 68.4167 41.9297 68.6575V69.8527C41.9297 70.0935 42.2421 70.2885 42.6273 70.2885H136.116C136.501 70.2885 136.813 70.0935 136.813 69.8527V68.6575C136.813 68.4167 136.501 68.2217 136.116 68.2217Z" fill="#E2B38E"/>
<path opacity="0.2" d="M135.98 70.5598H42.4931C42.1924 70.5598 41.9041 70.4852 41.6915 70.3523C41.4788 70.2193 41.3594 70.0396 41.3594 69.8516V68.6564C41.3594 68.4685 41.4788 68.2887 41.6915 68.1558C41.9041 68.0229 42.1924 67.9482 42.4931 67.9482H135.98C136.281 67.9482 136.569 68.0229 136.781 68.1558C136.994 68.2887 137.113 68.4685 137.113 68.6564V69.8516C137.113 70.0396 136.994 70.2193 136.781 70.3523C136.569 70.4852 136.281 70.5598 135.98 70.5598ZM42.4931 68.493C42.4237 68.493 42.3572 68.5104 42.3081 68.5409C42.259 68.5714 42.2315 68.6128 42.2315 68.6564V69.8516C42.2315 69.8952 42.259 69.9366 42.3081 69.9671C42.3572 69.9976 42.4237 70.0151 42.4931 70.0151H135.98C136.05 70.0151 136.116 69.9976 136.165 69.9671C136.214 69.9366 136.241 69.8952 136.241 69.8516V68.6564C136.241 68.6128 136.214 68.5714 136.165 68.5409C136.116 68.5104 136.05 68.493 135.98 68.493H42.4931Z" fill="#385868"/>
<path opacity="0.2" d="M136.116 39.2881H42.6273C42.2421 39.2881 41.9297 39.4832 41.9297 39.7239V40.9191C41.9297 41.1598 42.2421 41.3549 42.6273 41.3549H136.116C136.501 41.3549 136.813 41.1598 136.813 40.9191V39.7239C136.813 39.4832 136.501 39.2881 136.116 39.2881Z" fill="#E2B38E"/>
<path opacity="0.2" d="M135.98 41.6272H42.4931C42.1924 41.6272 41.9041 41.5526 41.6915 41.4198C41.4788 41.2869 41.3594 41.1068 41.3594 40.919V39.7238C41.3594 39.536 41.4788 39.3559 41.6915 39.2231C41.9041 39.0903 42.1924 39.0156 42.4931 39.0156H135.98C136.281 39.0156 136.569 39.0903 136.781 39.2231C136.994 39.3559 137.113 39.536 137.113 39.7238V40.919C137.113 41.1068 136.994 41.2869 136.781 41.4198C136.569 41.5526 136.281 41.6272 135.98 41.6272ZM42.4931 39.5604C42.4237 39.5604 42.3572 39.5776 42.3081 39.6083C42.259 39.6389 42.2315 39.6804 42.2315 39.7238V40.919C42.2315 40.9624 42.259 41.0039 42.3081 41.0346C42.3572 41.0652 42.4237 41.0824 42.4931 41.0824H135.98C136.05 41.0824 136.116 41.0652 136.165 41.0346C136.214 41.0039 136.241 40.9624 136.241 40.919V39.7238C136.241 39.6804 136.214 39.6389 136.165 39.6083C136.116 39.5776 136.05 39.5604 135.98 39.5604H42.4931Z" fill="#385868"/>
</g>
<g opacity="0.2">
<path opacity="0.2" d="M13.1953 57.209V57.6448H24.0091V57.209H13.1953Z" fill="#385868"/>
<path opacity="0.2" d="M27.3257 59.0518L27.3223 59.4876L38.1359 59.5208L38.1393 59.085L27.3257 59.0518Z" fill="#385868"/>
<path opacity="0.2" d="M13.8361 62.4053L13.7734 66.3221L14.4711 66.3264L14.5338 62.4096L13.8361 62.4053Z" fill="#385868"/>
<path opacity="0.2" d="M28.5412 55.3965L28.4785 59.3133L29.1762 59.3177L29.2389 55.4008L28.5412 55.3965Z" fill="#385868"/>
<path opacity="0.2" d="M18.9231 60.7084H32.5075C33.411 60.7084 34.1435 60.2508 34.1435 59.6864V58.7124C34.1435 58.148 33.411 57.6904 32.5075 57.6904H18.9231C18.0196 57.6904 17.2871 58.148 17.2871 58.7124V59.6864C17.2871 60.2508 18.0196 60.7084 18.9231 60.7084Z" fill="#F2F2F2"/>
<path opacity="0.2" d="M32.5082 60.928H18.9204C18.3942 60.9274 17.8898 60.7967 17.5177 60.5641C17.1456 60.332 16.9362 60.0166 16.9355 59.6881V58.7146C16.9358 58.3856 17.1449 58.0701 17.517 57.8375C17.8892 57.6049 18.3939 57.4742 18.9204 57.4736H32.5082C33.0345 57.4742 33.5389 57.6049 33.911 57.8375C34.2831 58.0696 34.4924 58.385 34.4931 58.7135V59.687C34.4929 60.016 34.2837 60.3314 33.9116 60.5641C33.5395 60.7967 33.0348 60.9274 32.5082 60.928ZM18.9204 57.9094C18.5792 57.91 18.252 57.9944 18.0107 58.1453C17.7694 58.2962 17.6336 58.5005 17.6332 58.7135V59.687C17.6332 59.9005 17.7688 60.1048 18.0101 60.2557C18.2515 60.4072 18.5789 60.4916 18.9204 60.4921H32.5082C32.8495 60.4916 33.1766 60.4072 33.4179 60.2563C33.6592 60.1054 33.795 59.9011 33.7954 59.6881V58.7146C33.7954 58.5011 33.6599 58.2968 33.4185 58.1459C33.1772 57.9944 32.8498 57.91 32.5082 57.9094H18.9204Z" fill="#385868"/>
<path opacity="0.2" d="M7.32938 63.726H20.9137C21.8173 63.726 22.5497 63.2684 22.5497 62.704V61.73C22.5497 61.1656 21.8173 60.708 20.9137 60.708H7.32938C6.42583 60.708 5.69336 61.1656 5.69336 61.73V62.704C5.69336 63.2684 6.42583 63.726 7.32938 63.726Z" fill="#F2F2F2"/>
<path opacity="0.2" d="M20.9149 63.9442H7.33143C7.07043 63.9442 6.81203 63.9121 6.57099 63.8494C6.32995 63.7868 6.11098 63.6953 5.92659 63.5798C5.74219 63.4643 5.59599 63.3276 5.49633 63.1767C5.39666 63.0263 5.34548 62.8645 5.3457 62.7016V61.7282C5.3464 61.3997 5.55574 61.0843 5.92782 60.8522C6.2999 60.6196 6.80435 60.4888 7.33055 60.4883H20.9149C21.4411 60.4888 21.9456 60.6196 22.3176 60.8522C22.6897 61.0843 22.899 61.3997 22.8997 61.7282V62.7016C22.9003 63.0307 22.6914 63.3466 22.3192 63.5798C21.947 63.8124 21.4419 63.9437 20.9149 63.9442ZM7.33143 60.9263C6.99018 60.9268 6.66306 61.0112 6.42176 61.1621C6.18047 61.313 6.0447 61.5173 6.04424 61.7303V62.7016C6.0447 62.9146 6.18047 63.1189 6.42176 63.2698C6.66306 63.4207 6.99018 63.5052 7.33143 63.5057H20.9149C21.2561 63.5052 21.5832 63.4207 21.8245 63.2698C22.0659 63.1189 22.2016 62.9146 22.2021 62.7016V61.7282C22.2016 61.5152 22.0659 61.3109 21.8245 61.16C21.5832 61.0091 21.2561 60.9246 20.9149 60.9241L7.33143 60.9263Z" fill="#385868"/>
</g>
<g opacity="0.2">
<path opacity="0.2" d="M7.87891 12.1504V12.5862H18.6927V12.1504H7.87891Z" fill="#385868"/>
<path opacity="0.2" d="M21.978 13.7715L21.9746 14.2073L32.7882 14.2403L32.7917 13.8045L21.978 13.7715Z" fill="#385868"/>
<path opacity="0.2" d="M8.48262 17.0498L8.41992 20.9666L9.1176 20.971L9.1803 17.0542L8.48262 17.0498Z" fill="#385868"/>
<path opacity="0.2" d="M23.1799 10.042L23.1172 13.9588L23.8148 13.9632L23.8776 10.0464L23.1799 10.042Z" fill="#385868"/>
<path opacity="0.2" d="M13.5813 15.4311H27.1657C28.0692 15.4311 28.8017 14.9735 28.8017 14.4091V13.4351C28.8017 12.8706 28.0692 12.4131 27.1657 12.4131H13.5813C12.6778 12.4131 11.9453 12.8706 11.9453 13.4351V14.4091C11.9453 14.9735 12.6778 15.4311 13.5813 15.4311Z" fill="#F2F2F2"/>
<path opacity="0.2" d="M27.1625 15.6485H13.5799C13.0541 15.6477 12.5504 15.5167 12.1788 15.2844C11.8073 15.052 11.5984 14.7371 11.5977 14.4087V13.4352C11.5984 13.1065 11.8077 12.7914 12.1798 12.5589C12.5519 12.3265 13.0563 12.1957 13.5825 12.1953H27.1625C27.6887 12.1957 28.1931 12.3265 28.5652 12.5589C28.9374 12.7914 29.1467 13.1065 29.1474 13.4352V14.4087C29.1467 14.7374 28.9374 15.0525 28.5652 15.2849C28.1931 15.5174 27.6887 15.6481 27.1625 15.6485ZM13.579 12.6306C13.2382 12.6314 12.9119 12.7166 12.6713 12.8674C12.4308 13.0182 12.2956 13.2223 12.2953 13.4352V14.4087C12.2958 14.6218 12.4315 14.8262 12.6728 14.9769C12.9141 15.1276 13.2413 15.2125 13.5825 15.2127H27.1625C27.5037 15.2125 27.8309 15.1276 28.0722 14.9769C28.3135 14.8262 28.4493 14.6218 28.4497 14.4087V13.4352C28.4493 13.222 28.3135 13.0177 28.0722 12.8669C27.8309 12.7162 27.5037 12.6314 27.1625 12.6311L13.579 12.6306Z" fill="#385868"/>
<path opacity="0.2" d="M1.98368 18.4486H15.568C16.4716 18.4486 17.204 17.9911 17.204 17.4267V16.4526C17.204 15.8882 16.4716 15.4307 15.568 15.4307H1.98368C1.08013 15.4307 0.347656 15.8882 0.347656 16.4526V17.4267C0.347656 17.9911 1.08013 18.4486 1.98368 18.4486Z" fill="#F2F2F2"/>
<path opacity="0.2" d="M15.5683 18.6668H1.98485C1.4585 18.6663 0.953914 18.5355 0.581806 18.3029C0.209699 18.0704 0.000461461 17.7552 0 17.4264V16.4518C0.000692221 16.1231 0.210032 15.808 0.582114 15.5755C0.954193 15.3431 1.45865 15.2123 1.98485 15.2119H15.5683C16.0947 15.2122 16.5994 15.3429 16.9716 15.5753C17.3439 15.8078 17.5534 16.123 17.5541 16.4518V17.4253C17.5541 17.7544 17.3449 18.07 16.9726 18.3028C16.6002 18.5355 16.0952 18.6665 15.5683 18.6668ZM1.98485 15.6483C1.64376 15.6485 1.31676 15.7333 1.07549 15.8839C0.834218 16.0345 0.698355 16.2387 0.697662 16.4518V17.4253C0.698124 17.6384 0.833886 17.8428 1.07518 17.9935C1.31647 18.1442 1.64361 18.2291 1.98485 18.2293H15.5683C15.9096 18.2291 16.2367 18.1442 16.478 17.9935C16.7193 17.8428 16.8551 17.6384 16.8555 17.4253V16.4518C16.8551 16.2386 16.7193 16.0343 16.478 15.8835C16.2367 15.7328 15.9096 15.648 15.5683 15.6477L1.98485 15.6483Z" fill="#385868"/>
</g>
<g opacity="0.2">
<path opacity="0.2" d="M152.152 59.2637L152.148 59.6995L162.962 59.7322L162.966 59.2964L152.152 59.2637Z" fill="#385868"/>
<path opacity="0.2" d="M166.185 60.8398L166.182 61.2757L176.996 61.3083L177 60.8725L166.185 60.8398Z" fill="#385868"/>
<path opacity="0.2" d="M152.926 64.1943L152.863 68.1112L153.561 68.1155L153.624 64.1987L152.926 64.1943Z" fill="#385868"/>
<path opacity="0.2" d="M167.627 57.1865L167.564 61.1033L168.262 61.1077L168.325 57.1909L167.627 57.1865Z" fill="#385868"/>
<path opacity="0.2" d="M157.784 62.4984H171.369C172.272 62.4984 173.005 62.0408 173.005 61.4765V60.5024C173.005 59.9381 172.272 59.4805 171.369 59.4805H157.784C156.881 59.4805 156.148 59.9381 156.148 60.5024V61.4765C156.148 62.0408 156.881 62.4984 157.784 62.4984Z" fill="#F2F2F2"/>
<path opacity="0.2" d="M171.361 62.7169H157.78C157.253 62.7164 156.749 62.5856 156.377 62.353C156.005 62.1209 155.796 61.8055 155.795 61.477V60.5035C155.796 60.1751 156.005 59.8596 156.377 59.627C156.749 59.395 157.253 59.2642 157.78 59.2637H171.361C171.887 59.2642 172.391 59.395 172.763 59.627C173.135 59.8596 173.345 60.1751 173.345 60.5035V61.477C173.345 61.8055 173.135 62.1209 172.763 62.353C172.391 62.5856 171.887 62.7164 171.361 62.7169ZM157.777 59.6989C157.435 59.6989 157.108 59.7839 156.868 59.9348C156.626 60.0857 156.49 60.29 156.49 60.503V61.4765C156.49 61.6895 156.626 61.8938 156.868 62.0447C157.108 62.1956 157.435 62.28 157.777 62.2805H171.361C171.702 62.28 172.029 62.1956 172.27 62.0447C172.512 61.8938 172.647 61.6895 172.648 61.4765V60.503C172.647 60.29 172.512 60.0857 172.27 59.9348C172.029 59.7839 171.702 59.6989 171.361 59.6989H157.777Z" fill="#385868"/>
<path opacity="0.2" d="M146.185 65.516H159.769C160.673 65.516 161.405 65.0584 161.405 64.494V63.52C161.405 62.9556 160.673 62.498 159.769 62.498H146.185C145.281 62.498 144.549 62.9556 144.549 63.52V64.494C144.549 65.0584 145.281 65.516 146.185 65.516Z" fill="#F2F2F2"/>
<path opacity="0.2" d="M159.77 65.7351H146.186C145.66 65.7346 145.155 65.6038 144.783 65.3712C144.411 65.1392 144.202 64.8238 144.201 64.4953V63.5201C144.202 63.1917 144.411 62.8762 144.783 62.6436C145.155 62.4116 145.66 62.2808 146.186 62.2803H159.77C160.295 62.2808 160.8 62.4116 161.172 62.6436C161.544 62.8762 161.753 63.1917 161.754 63.5201V64.4936C161.754 64.8227 161.545 65.1381 161.173 65.3707C160.801 65.6038 160.296 65.7346 159.77 65.7351ZM146.186 62.7172C145.845 62.7177 145.517 62.8022 145.276 62.953C145.035 63.1039 144.899 63.3082 144.899 63.5212V64.4947C144.899 64.7077 145.035 64.912 145.276 65.0629C145.517 65.2138 145.845 65.2982 146.186 65.2988H159.77C160.11 65.2982 160.438 65.2138 160.679 65.0629C160.921 64.912 161.056 64.7077 161.057 64.4947V63.5201C161.056 63.3071 160.921 63.1029 160.679 62.952C160.438 62.8011 160.11 62.7166 159.77 62.7161L146.186 62.7172Z" fill="#385868"/>
</g>
<g opacity="0.2">
<path opacity="0.2" d="M152.152 2.17285L152.148 2.60865L162.963 2.64167L162.967 2.20586L152.152 2.17285Z" fill="#385868"/>
<path opacity="0.2" d="M166.185 3.74902L166.182 4.18483L176.995 4.21784L176.999 3.78204L166.185 3.74902Z" fill="#385868"/>
<path opacity="0.2" d="M152.922 7.00781L152.859 10.9246L153.557 10.929L153.62 7.01217L152.922 7.00781Z" fill="#385868"/>
<path opacity="0.2" d="M167.626 0L167.564 3.91682L168.262 3.92118L168.324 0.00435807L167.626 0Z" fill="#385868"/>
<path opacity="0.2" d="M157.784 5.40859H171.369C172.272 5.40859 173.005 4.95104 173.005 4.38662V3.41259C173.005 2.84818 172.272 2.39062 171.369 2.39062H157.784C156.881 2.39062 156.148 2.84818 156.148 3.41259V4.38662C156.148 4.95104 156.881 5.40859 157.784 5.40859Z" fill="#F2F2F2"/>
<path opacity="0.2" d="M171.361 5.62663H157.78C157.253 5.62619 156.749 5.4954 156.377 5.263C156.005 5.03057 155.796 4.71546 155.795 4.38675V3.41272C155.796 3.08402 156.005 2.76891 156.377 2.53648C156.749 2.30405 157.253 2.17328 157.78 2.17285H171.361C171.887 2.17328 172.391 2.30405 172.763 2.53648C173.135 2.76891 173.345 3.08402 173.345 3.41272V4.38621C173.345 4.715 173.135 5.03026 172.764 5.2628C172.391 5.49534 171.887 5.62619 171.361 5.62663ZM157.777 2.60866C157.435 2.60895 157.108 2.69376 156.868 2.84448C156.626 2.99521 156.49 3.19956 156.49 3.41272V4.38621C156.49 4.59937 156.626 4.80372 156.868 4.95445C157.108 5.10518 157.435 5.18998 157.777 5.19027H171.361C171.702 5.18998 172.029 5.10518 172.27 4.95445C172.512 4.80372 172.647 4.59937 172.648 4.38621V3.41272C172.648 3.19947 172.512 2.99497 172.27 2.84413C172.03 2.69328 171.702 2.6084 171.361 2.60811L157.777 2.60866Z" fill="#385868"/>
<path opacity="0.2" d="M146.185 8.42715H159.769C160.673 8.42715 161.405 7.96961 161.405 7.40518V6.43115C161.405 5.86673 160.673 5.40918 159.769 5.40918H146.185C145.281 5.40918 144.549 5.86673 144.549 6.43115V7.40518C144.549 7.96961 145.281 8.42715 146.185 8.42715Z" fill="#F2F2F2"/>
<path opacity="0.2" d="M159.77 8.64595H146.186C145.66 8.64551 145.155 8.51477 144.783 8.28232C144.411 8.04988 144.202 7.73479 144.201 7.40608V6.42933C144.202 6.10062 144.411 5.78553 144.783 5.55308C145.155 5.32065 145.66 5.18988 146.186 5.18945H159.77C160.295 5.18974 160.8 5.32045 161.173 5.55286C161.545 5.78531 161.754 6.10051 161.755 6.42933V7.40281C161.755 7.56591 161.705 7.72743 161.604 7.87817C161.505 8.0289 161.359 8.16591 161.174 8.28134C160.99 8.39678 160.772 8.48841 160.53 8.551C160.289 8.61354 160.03 8.64579 159.77 8.64595ZM146.186 5.62798C145.845 5.62826 145.519 5.71269 145.278 5.86283C145.037 6.01297 144.901 6.21665 144.899 6.42933V7.40281C144.899 7.61597 145.035 7.82031 145.276 7.97105C145.517 8.12178 145.845 8.2066 146.186 8.20688H159.77C160.11 8.2066 160.438 8.12178 160.679 7.97105C160.921 7.82031 161.056 7.61597 161.057 7.40281V6.42933C161.056 6.21616 160.921 6.01182 160.679 5.86109C160.438 5.71035 160.11 5.62553 159.77 5.62526L146.186 5.62798Z" fill="#385868"/>
</g>
<path d="M146.143 95.4561H27.2793V96.0008H146.143V95.4561Z" fill="#385868"/>
<path d="M159.483 95.4561H148.582V96.0008H159.483V95.4561Z" fill="#385868"/>
<path d="M25.4484 95.4561H17.8613V96.0008H25.4484V95.4561Z" fill="#385868"/>
<path d="M97.73 52.1553V54.8584C97.73 55.5747 98.186 56.2622 98.9971 56.7688C99.8081 57.2755 100.908 57.5598 102.055 57.5598H107.332C109.71 57.5598 111.99 58.1498 113.672 59.2001C115.353 60.2504 116.297 61.6749 116.297 63.1605V78.617H69.3379V63.1605C69.3381 61.6749 70.2828 60.2509 71.9642 59.2006C73.6456 58.1503 75.9259 57.5604 78.3037 57.5604H83.5807C84.1486 57.5604 84.7109 57.4901 85.2355 57.3545C85.7602 57.2188 86.2368 57.0194 86.6383 56.7688C87.0399 56.5177 87.3583 56.2197 87.5755 55.8923C87.7926 55.5644 87.9043 55.213 87.9043 54.8584V52.1553" fill="#FFC6AD"/>
<path d="M115.936 63.3286V78.7856H69.3379V63.3286C69.3381 61.8431 70.2828 60.4191 71.9642 59.3688C73.6456 58.3185 75.9259 57.7285 78.3037 57.7285H80.8127C81.049 59.1324 82.6284 60.4643 84.5853 61.1687C86.5728 61.8839 88.908 62.1296 91.199 62.1945C94.137 62.2778 97.1457 62.0735 99.8325 61.3261C102.383 60.6179 104.629 59.3274 105.739 57.7307H106.97C109.348 57.7307 111.627 58.3201 113.309 59.3699C114.99 60.4196 115.935 61.8436 115.936 63.3286Z" fill="#628E62"/>
<path d="M115.759 63.3286V65.9751C115.759 64.4895 114.815 63.065 113.134 62.0147C111.452 60.9644 109.172 60.3744 106.794 60.3744H105.562C104.449 61.9733 102.206 63.2616 99.6556 63.9698C96.9688 64.7172 93.9601 64.9215 91.0221 64.8382C88.7311 64.7733 86.3957 64.5271 84.4082 63.8124C82.4504 63.108 80.8711 61.7761 80.6356 60.3722H78.1267C76.9487 60.3722 75.7822 60.5166 74.694 60.7982C73.6056 61.0799 72.6168 61.4923 71.7839 62.013C70.951 62.5333 70.2905 63.1511 69.8399 63.8309C69.3894 64.5108 69.1578 65.2391 69.1582 65.9751V63.3286C69.1583 62.5932 69.3904 61.8649 69.8412 61.185C70.292 60.5057 70.9527 59.8879 71.7854 59.3682C72.6183 58.848 73.6069 58.4356 74.6949 58.1545C75.783 57.8729 76.9491 57.7285 78.1267 57.7285H80.6356C80.872 59.1324 82.4513 60.4643 84.4082 61.1687C86.3957 61.8839 88.7311 62.1296 91.0221 62.1945C93.9601 62.2778 96.9688 62.0735 99.6556 61.3261C102.206 60.6179 104.452 59.3274 105.562 57.7307H106.794C109.171 57.7307 111.45 58.3201 113.132 59.3699C114.813 60.4196 115.759 61.8436 115.759 63.3286Z" fill="#628E62" fill-opacity="0.2"/>
<path d="M97.5533 52.5488V54.6031L97.4749 54.6151C94.283 55.0912 90.9735 55.1784 87.7285 54.8717V52.5488H97.5533Z" fill="#FFCEBF"/>
<path d="M96.8458 52.1555C96.8458 53.069 96.8196 53.9837 96.8458 54.8967C96.8589 55.3548 97.0368 55.8054 97.3664 56.2145C97.6952 56.6241 98.1678 56.9815 98.7486 57.2615C99.6687 57.7033 100.754 57.8869 101.905 57.8869C103.577 57.8869 105.25 57.8825 106.923 57.8869C109.667 57.894 112.3 58.7122 113.878 60.128C114.968 61.1048 115.411 62.2166 115.411 63.3966V76.6941C115.411 77.3005 115.334 77.9297 115.411 78.5349C115.411 78.5627 115.411 78.5894 115.411 78.6199L115.934 78.293H70.8824C70.2894 78.293 69.6493 78.25 69.0581 78.293C69.031 78.2941 69.004 78.2941 68.9769 78.293L69.5002 78.6199V63.7272C69.5002 62.891 69.5691 62.0842 70.047 61.2862C71.0638 59.5887 73.5126 58.3276 76.3478 57.9806C77.1771 57.8793 78.0108 57.8874 78.8506 57.8874H81.9535C82.7148 57.8874 83.4953 57.9163 84.2444 57.8188C84.951 57.7229 85.6143 57.5295 86.1861 57.2533C86.7579 56.9766 87.2241 56.6241 87.5494 56.221C88.0064 55.6452 88.0674 55.0525 88.0674 54.426V52.1555C88.0674 51.7349 87.0211 51.7344 87.0211 52.1555C87.0211 53.069 87.0473 53.9837 87.0211 54.8967C87.0056 55.3363 86.7971 55.765 86.4182 56.1355C86.0395 56.5065 85.505 56.805 84.8732 56.9989C84.0761 57.2446 83.2389 57.2332 82.3799 57.2332H79.3276C78.5872 57.2332 77.8355 57.2146 77.0969 57.2582C75.6337 57.3448 74.2219 57.6401 72.9708 58.1222C71.7196 58.6038 70.6626 59.2586 69.8813 60.0365C68.8644 61.0552 68.4572 62.2057 68.4572 63.3944V73.2496C68.4572 75.0087 68.3909 76.7737 68.4572 78.5338C68.4572 78.5621 68.4572 78.5883 68.4572 78.6188C68.4592 78.7049 68.515 78.7877 68.6127 78.8487C68.7104 78.9097 68.8423 78.9445 68.9804 78.9456H110.166C112.059 78.9456 113.966 78.9881 115.858 78.9456C115.885 78.9456 115.912 78.9456 115.939 78.9456C116.078 78.9445 116.209 78.9097 116.307 78.8487C116.405 78.7877 116.461 78.7049 116.462 78.6188V63.7272C116.462 62.8845 116.403 62.0576 115.956 61.2486C115.478 60.3868 114.69 59.6045 113.654 58.9617C112.619 58.3189 111.362 57.8319 109.979 57.5377C108.045 57.1302 105.955 57.2337 103.944 57.2337C103.203 57.2337 102.462 57.2386 101.72 57.2337C101.079 57.2337 100.447 57.1335 99.8832 56.9423C99.3199 56.7511 98.842 56.4743 98.4931 56.1382C97.9498 55.6027 97.8957 55.0356 97.8957 54.4266V52.1555C97.8957 51.7349 96.8493 51.7344 96.8493 52.1555H96.8458Z" fill="#385868"/>
<path d="M86.5781 20.4561C87.199 21.5456 89.0784 22.123 90.8347 22.4864C94.0047 23.1409 97.3291 23.4571 100.667 23.4217C103.052 23.3956 105.464 23.1918 107.8 23.498C110.136 23.8041 112.453 24.7771 112.945 26.2343" fill="#E47BB2"/>
<path d="M84.3027 15.7105C89.0808 13.4944 94.8714 11.9467 100.82 12.0606C106.768 12.1744 112.801 14.1732 115.357 17.53C118.803 22.0515 115.633 27.6336 114.505 32.2984C113.257 37.4793 113.449 42.7559 115.074 47.8959C115.825 50.2651 116.914 52.649 118.941 54.7256C119.427 55.2235 120.347 55.7361 120.702 56.2574C121.152 56.9215 120.789 56.9438 119.543 57.1612C117.688 57.4842 115.673 57.3426 113.787 57.2565C111.689 57.1612 109.569 57.0501 107.569 56.6453C104.255 55.9747 100.854 54.1187 101.432 51.7185" fill="#E47BB2"/>
<path d="M119.812 57.1596C117.958 57.4826 115.943 57.341 114.057 57.2554C111.959 57.1596 109.839 57.049 107.839 56.6442C104.525 55.9731 101.124 54.1176 101.701 51.7174L100.625 49.4648C102.435 51.5894 105.904 53.1834 109.677 53.8349C112.579 54.3361 115.614 54.353 118.596 54.0528C118.79 54.2801 118.996 54.5044 119.212 54.7256C119.697 55.2235 120.618 55.7356 120.971 56.2569C121.423 56.9204 121.06 56.9422 119.812 57.1596Z" fill="#F178B6"/>
<path d="M79.8816 29.6903C84.9117 29.3635 83.6777 25.3502 85.6373 22.438C86.8913 20.5738 87.3158 18.276 85.4097 16.6412C82.6364 14.2628 77.0778 13.7311 72.8421 14.6773C67.062 15.9684 65.9902 19.7981 65.7574 23.2268C65.5376 26.4567 66.6914 29.6424 68.0762 32.7328C68.8881 34.5387 69.3896 36.3909 69.8309 38.2431C70.7622 42.1572 71.4198 46.1965 69.8806 50.0344C68.3413 53.8722 64.2042 57.5172 58.1816 58.744C63.1525 59.2315 68.4338 59.0294 72.9041 57.5891C77.3743 56.1488 80.8722 53.3242 81.0824 50.1847" fill="#E47BB2"/>
<path d="M72.2762 55.9582C69.0391 57.0014 65.3755 57.3942 61.7145 57.3474C60.4504 57.9297 59.0463 58.3824 57.5547 58.6896C62.5255 59.1772 67.8068 58.9751 72.2771 57.5348C76.7474 56.0944 80.2453 53.2698 80.4555 50.1304L80.3927 49.0518C79.8677 51.9896 76.5093 54.5947 72.2762 55.9582Z" fill="#F178B6"/>
<path d="M106.936 23.2896C108.168 24.6373 108.844 26.1414 108.815 27.8688C108.773 30.3284 107.363 32.7755 108.03 35.1643C108.223 35.8566 108.584 36.5033 108.863 37.1733C110.511 41.1392 109.02 45.8181 105.688 48.8633C102.356 51.9085 97.4384 53.3974 92.6271 53.3941H92.5957C87.7845 53.3974 82.8669 51.9085 79.5347 48.8633C76.2025 45.8181 74.7121 41.1392 76.3603 37.1733C76.6385 36.5033 76.9996 35.8572 77.1932 35.1643C77.8603 32.7749 76.451 30.3279 76.4083 27.8688C76.3795 26.142 77.0554 24.4123 78.2868 23.0646L81.4149 20.063L90.3379 18.4287L95.832 19.1042" fill="#FFC6AD"/>
<path d="M105.689 47.1172C102.356 50.1624 97.4387 51.6513 92.6275 51.648H92.5961C87.7848 51.6513 82.8672 50.1624 79.535 47.1172C77.3251 45.0973 75.9263 42.3582 75.7152 39.5859C75.4536 42.836 76.9362 46.2059 79.535 48.5815C82.8672 51.6268 87.7848 53.1156 92.5961 53.1123H92.6275C97.4387 53.1156 102.356 51.6268 105.689 48.5815C108.288 46.2059 109.766 42.836 109.508 39.5865C109.297 42.3582 107.898 45.0973 105.689 47.1172Z" fill="#FFCEBF"/>
<path d="M108.015 24.7976C108.004 24.7976 107.991 24.7944 107.98 24.7927C107.806 24.7695 107.63 24.7492 107.451 24.7317C105.282 24.5165 103.052 24.6925 100.847 24.7165C96.8829 24.7595 89.9464 24.6947 87.5116 22.3451C89.8758 24.6228 78.7262 28.4966 76.4361 29.2761L76.2617 28.2552C76.2434 28.1463 76.2285 28.033 76.3218 27.9431C76.4091 27.8744 76.525 27.8222 76.6567 27.7922C80.6221 26.6231 83.5095 24.9338 85.2842 22.3827C85.2955 22.3658 85.3069 22.349 85.3173 22.3321C85.3679 22.2558 85.4176 22.179 85.4638 22.1011L85.4717 22.0891C85.8981 21.4583 86.2057 20.7987 86.3882 20.1236L86.9377 21.2796C86.9629 21.1162 86.9786 20.9495 86.9847 20.786V20.7713C86.99 20.5937 86.9847 20.4172 86.9629 20.2418C86.919 19.8211 86.7873 19.4057 86.5714 19.0063V18.7497L88.3828 18.418C88.2485 18.8854 87.9938 19.3784 88.2755 19.8196C88.5903 20.3132 89.4598 20.5605 90.2595 20.7425C94.4324 21.6909 98.8486 22.1551 103.289 22.112C103.683 22.1082 104.078 22.1 104.474 22.0913L106.758 22.9525C106.796 22.9939 106.834 23.0364 106.871 23.0789L106.837 23.0757C106.887 23.1301 106.934 23.1846 106.982 23.2391C107.405 23.7368 107.751 24.2587 108.015 24.7976Z" fill="#FFCEBF"/>
<path d="M86.7579 20.624C87.3789 21.7135 89.2583 22.291 91.0146 22.6543C94.1846 23.3085 97.509 23.6243 100.847 23.5886C103.232 23.5624 105.644 23.3587 107.98 23.6649C110.316 23.971 112.633 24.9439 113.125 26.4012L114.946 17.8092L86.7344 16.9082L86.7579 20.624Z" fill="#E47BB2"/>
<path d="M116.85 57.6364C116.002 57.6364 115.153 57.5956 114.321 57.5552L113.764 57.5291C111.478 57.4251 109.426 57.3063 107.443 56.9053C105.612 56.5355 103.895 55.8452 102.723 55.0112C101.319 54.0127 100.726 52.86 101.009 51.6789L101.872 51.7596C101.564 53.0452 102.521 54.0421 103.378 54.6517C104.45 55.4143 106.029 56.0468 107.712 56.3873C109.601 56.7686 111.6 56.8846 113.828 56.9865L114.388 57.0132C116.085 57.0949 117.839 57.1766 119.44 56.9004L119.627 56.8683C119.981 56.8073 120.382 56.7381 120.465 56.6864C120.465 56.6678 120.465 56.5905 120.314 56.366C120.133 56.0991 119.752 55.8115 119.383 55.5331C119.092 55.3239 118.824 55.1022 118.582 54.8701C117.483 53.7436 115.879 51.8004 114.658 47.9517C113.016 42.782 112.822 37.4736 114.086 32.2626C114.333 31.2401 114.67 30.1974 115.027 29.0927C116.296 25.1677 117.607 21.1092 114.975 17.6527C113.791 16.0985 111.778 14.7731 109.153 13.8198C106.611 12.9054 103.749 12.3942 100.818 12.331C94.0753 12.2024 88.2603 14.2175 84.574 15.9264L84.0508 15.4906C87.8522 13.7277 93.8503 11.6549 100.842 11.7862C103.918 11.8435 106.925 12.3778 109.589 13.341C112.366 14.3498 114.5 15.757 115.76 17.4108C116.998 19.0353 117.51 20.9344 117.33 23.2169C117.171 25.2118 116.516 27.2361 115.883 29.194C115.528 30.2917 115.194 31.3284 114.949 32.3373C113.701 37.4867 113.892 42.7325 115.514 47.8411C116.707 51.6048 118.261 53.4908 119.326 54.582C119.547 54.7917 119.789 54.9922 120.054 55.1812C120.463 55.4895 120.885 55.8087 121.116 56.1487C121.29 56.4102 121.432 56.6842 121.25 56.9195C121.045 57.1843 120.573 57.266 119.855 57.3891L119.67 57.4212C118.746 57.5819 117.799 57.6364 116.85 57.6364Z" fill="#385868"/>
<path d="M92.6446 53.7013H92.5783C87.2935 53.7013 82.409 52.007 79.1753 49.0517C75.626 45.8088 74.3257 41.0209 75.9382 37.14C76.0315 36.9145 76.1353 36.6901 76.2364 36.4727C76.4508 36.0391 76.6269 35.5984 76.764 35.1527C77.153 33.7609 76.8181 32.3619 76.4632 30.8813C76.2312 29.9111 75.9905 28.9076 75.9739 27.9069C75.9434 26.119 76.6315 24.366 77.9099 22.9648L78.6678 23.2372C77.4818 24.5348 76.8181 26.2334 76.8469 27.9036C76.8635 28.8668 77.0989 29.8511 77.3265 30.8034C77.6754 32.2623 78.0373 33.7701 77.6239 35.2492C77.4812 35.7141 77.2981 36.1738 77.0754 36.6263C76.9768 36.8399 76.8748 37.0621 76.7841 37.28C75.2309 41.0182 76.4815 45.6268 79.8965 48.7478C82.9654 51.5522 87.5883 53.1603 92.58 53.1603H92.6454C97.639 53.1603 102.261 51.5527 105.33 48.7478C108.745 45.6268 109.996 41.0182 108.442 37.28C108.355 37.0621 108.25 36.8404 108.151 36.6263C107.929 36.1738 107.745 35.7141 107.602 35.2492C107.189 33.7707 107.551 32.2623 107.9 30.8034C108.127 29.8511 108.364 28.8668 108.379 27.9036C108.407 26.2862 107.811 24.8334 106.558 23.4628L107.316 23.1904C108.647 24.6476 109.28 26.1904 109.252 27.9074C109.235 28.9082 108.994 29.9116 108.762 30.8818C108.407 32.3625 108.073 33.7614 108.461 35.1533C108.598 35.599 108.775 36.0396 108.989 36.4732C109.089 36.6911 109.193 36.915 109.287 37.1406C110.901 41.022 109.6 45.8093 106.051 49.0528C102.817 52.007 97.9337 53.7013 92.6446 53.7013Z" fill="#385868"/>
<path d="M85.4669 22.7178C83.6852 25.3653 80.0845 27.6806 75.6639 28.3228C75.2665 28.3809 74.8641 28.4248 74.4587 28.4541C72.8784 27.4501 70.0259 25.4307 70.1567 24.0024C70.3372 22.032 75.6508 18.8789 76.9162 17.7529C77.4961 17.2354 78.1711 15.898 78.7319 14.6025C78.8636 14.6151 78.9935 14.6292 79.1252 14.6439C81.5374 14.925 83.7759 15.6659 85.2393 16.921C87.1413 18.558 86.7183 20.8558 85.4669 22.7178Z" fill="#E47BB2"/>
<path d="M62.9263 59.2553C61.3151 59.2531 59.7064 59.1725 58.1151 59.0145L56.3203 58.8386L58.0479 58.4867C63.419 57.3922 67.7916 54.1286 69.459 49.9699C71.0349 46.0389 70.2552 41.8769 69.4006 38.2848C68.9803 36.5187 68.4788 34.6349 67.6565 32.8056C66.3126 29.7985 65.0978 26.5578 65.3245 23.2146C65.5539 19.8371 66.6004 15.7824 72.6979 14.42C74.9696 13.9209 77.4188 13.8266 79.7714 14.1476C82.3213 14.499 84.3934 15.3058 85.7651 16.4819C86.7105 17.2931 87.1753 18.2943 87.1474 19.4585C87.1238 20.439 86.741 21.5051 86.0425 22.5445C85.0331 24.0593 83.4794 25.4089 81.5016 26.4886C79.4086 27.6168 77.0008 28.2966 74.5345 28.4563L74.4473 27.9142C78.9167 27.6255 83.1533 25.435 85.241 22.3337C85.8977 21.358 86.2561 20.3611 86.2788 19.4508C86.3041 18.4071 85.8951 17.5164 85.064 16.8028C83.8204 15.7361 81.9245 15.0018 79.5873 14.6782C77.3939 14.3791 75.1104 14.4674 72.9927 14.9332C70.4846 15.4932 68.73 16.5794 67.6268 18.2529C66.5367 19.9079 66.2882 21.8903 66.1966 23.238C65.9742 26.5066 67.1724 29.6967 68.4997 32.6591C69.3317 34.5151 69.8393 36.4212 70.2631 38.2047C71.1299 41.8492 71.92 46.0743 70.305 50.1023C68.7352 54.0245 64.8274 57.1896 59.9141 58.612C63.6048 58.85 68.3829 58.7416 72.7049 57.3487C77.3374 55.856 80.4551 53.0402 80.6478 50.1753L81.5199 50.1981C81.3149 53.2553 78.0124 56.2521 73.1061 57.8329C69.7416 58.9165 66.1294 59.2553 62.9263 59.2553Z" fill="#385868"/>
<path d="M112.517 26.2896C112.021 24.8258 109.616 24.0141 107.708 23.7636C106.033 23.5457 104.258 23.5974 102.54 23.6492C101.93 23.6677 101.297 23.6867 100.673 23.6933C97.2853 23.7309 93.9112 23.41 90.695 22.7443C88.1947 22.2273 86.7131 21.5088 86.1602 20.5473L86.9817 20.3643C87.4404 21.1683 88.7057 21.7605 90.9653 22.2273C94.0882 22.8736 97.3637 23.1853 100.653 23.1491C101.264 23.1425 101.889 23.1235 102.493 23.1055C104.265 23.051 106.098 22.9965 107.883 23.2313C109.137 23.3928 110.315 23.7314 111.327 24.2212C112.41 24.7588 113.114 25.4354 113.365 26.1774L112.517 26.2896Z" fill="#385868"/>
<path d="M84.2616 32.2794C84.286 31.7205 84.9871 31.2553 85.9011 31.2553C86.815 31.2553 87.517 31.7205 87.5406 32.2794C87.5589 32.6994 88.6054 32.7011 88.5871 32.2794C88.5478 31.3675 87.3915 30.6016 85.9011 30.6016C84.4107 30.6016 83.2543 31.368 83.2151 32.2794C83.1968 32.7 84.2433 32.7 84.2616 32.2794Z" fill="#385868"/>
<path d="M96.787 32.2794C96.8114 31.7205 97.5125 31.2553 98.4265 31.2553C99.3404 31.2553 100.042 31.7205 100.066 32.2794C100.084 32.6994 101.131 32.7011 101.112 32.2794C101.073 31.3675 99.9169 30.6016 98.4265 30.6016C96.9361 30.6016 95.7797 31.368 95.7405 32.2794C95.7222 32.7 96.7687 32.7 96.787 32.2794Z" fill="#385868"/>
<path d="M93.8043 38.2473C93.7798 38.8062 93.0787 39.2714 92.1647 39.2714C91.2508 39.2714 90.5488 38.8062 90.5252 38.2473C90.5069 37.8273 89.4604 37.8256 89.4788 38.2473C89.518 39.1592 90.6744 39.9251 92.1647 39.9251C93.6551 39.9251 94.8115 39.1586 94.8508 38.2473C94.8691 37.8267 93.8226 37.8267 93.8043 38.2473Z" fill="#385868"/>
<path d="M115.191 20.8502C115.048 19.7182 114.27 18.6461 113.224 17.7173C110.608 15.3912 106.277 13.904 101.76 13.5542C97.2425 13.2045 92.5882 13.9476 88.6961 15.4217C88.4449 15.517 88.1807 15.6265 88.0743 15.7981C87.94 16.016 88.0996 16.2546 88.2304 16.4725C88.663 17.2003 88.7755 17.9871 88.5574 18.7512C88.4223 19.2192 88.1676 19.7133 88.4493 20.1551C88.7641 20.6486 89.6336 20.8965 90.4333 21.0785C94.607 22.0267 99.0224 22.4906 103.463 22.4474C105.566 22.4262 107.702 22.2933 109.751 22.5902C111.799 22.8871 113.808 23.7303 114.354 24.9996C114.683 24.8579 114.95 24.6678 115.132 24.4461C115.315 24.2244 115.407 23.978 115.401 23.7287" fill="#F178B6"/>
<path d="M67.5558 27.4125C66.5204 24.8128 66.6349 22.0861 67.8871 19.5238C68.4104 18.461 69.1647 17.3993 70.4938 16.6611C71.8228 15.923 73.5914 15.5771 75.353 15.4681C76.71 15.3848 78.1044 15.4349 79.3907 15.7165C82.7761 16.4574 84.8918 18.8255 84.556 21.0552C84.2203 23.2849 81.7078 25.2667 78.4899 26.2549C76.7675 26.7839 74.8681 27.0573 73.1397 27.5787C71.4112 28.1 69.7787 28.9602 69.3705 30.1319" fill="#F178B6"/>
<path d="M108.932 14.6027C109.477 14.842 109.995 15.1048 110.482 15.3894C110.931 15.6564 111.353 15.9402 111.747 16.2392C112.407 16.7472 112.974 17.3004 113.435 17.8882C113.629 18.1388 113.783 18.3714 113.908 18.5778C113.967 18.6819 114.022 18.7783 114.07 18.8682L114.185 19.1166L114.231 19.2223L114.263 19.3165C114.282 19.3754 114.296 19.4255 114.306 19.4658C114.325 19.547 114.324 19.5916 114.306 19.5955C114.287 19.5993 114.241 19.5633 114.181 19.4909C114.151 19.4549 114.117 19.4097 114.078 19.3558L114.017 19.2691L113.944 19.1711L113.777 18.9407L113.569 18.6683C113.416 18.4754 113.236 18.2586 113.021 18.0249C112.518 17.4786 111.935 16.963 111.277 16.4849C110.886 16.2061 110.472 15.9405 110.037 15.689C109.567 15.4215 109.07 15.1728 108.549 14.9443C108.027 14.7153 107.482 14.5069 106.918 14.32L106.715 14.2508L106.51 14.1871C106.374 14.1457 106.241 14.1016 106.106 14.0623C105.834 13.9861 105.571 13.9076 105.306 13.8444C104.809 13.7171 104.302 13.6054 103.788 13.51L103.428 13.4495C103.311 13.4293 103.196 13.4086 103.08 13.395C102.85 13.3656 102.632 13.3285 102.42 13.3106C102.208 13.2926 102.008 13.2632 101.815 13.2561L101.535 13.2365L101.401 13.2267L101.271 13.2229L100.795 13.2065C100.649 13.2065 100.515 13.2065 100.394 13.2065H100.219L100.069 13.212C99.9758 13.2147 99.8947 13.2163 99.831 13.2158C99.7011 13.2158 99.6296 13.2082 99.6252 13.194C99.6209 13.1798 99.6828 13.1591 99.8075 13.133C99.8703 13.1199 99.9479 13.1052 100.041 13.0894L100.192 13.0643L100.366 13.0464C100.489 13.034 100.627 13.0213 100.779 13.0082C100.931 13.0006 101.096 12.9957 101.274 12.9897L101.41 12.9854H101.551L101.845 12.9897C102.048 12.9897 102.259 13.0066 102.482 13.0191C102.705 13.0317 102.936 13.0578 103.18 13.0801C103.301 13.0905 103.423 13.1079 103.547 13.1248L103.926 13.1766C104.47 13.2609 105.005 13.3653 105.529 13.4893C105.808 13.5514 106.085 13.6282 106.37 13.7039C106.511 13.7426 106.652 13.7861 106.795 13.8281L107.009 13.8924L107.222 13.9621C107.815 14.1509 108.386 14.3649 108.932 14.6027Z" fill="white"/>
<path d="M106.212 31.375C106.081 32.166 106.135 32.8797 106.281 33.3874C106.352 33.6418 106.438 33.8444 106.489 33.9866C106.54 34.1288 106.565 34.2154 106.523 34.2285C106.481 34.2416 106.385 34.1789 106.249 34.0498C106.07 33.8629 105.927 33.6636 105.823 33.456C105.544 32.932 105.409 32.159 105.546 31.3315C105.609 30.9459 105.708 30.5628 105.84 30.1842C105.959 29.8372 106.083 29.5305 106.189 29.2723C106.41 28.7586 106.568 28.4432 106.66 28.4513C106.751 28.4595 106.756 28.7962 106.653 29.3278C106.603 29.5937 106.526 29.9075 106.444 30.2539C106.361 30.6004 106.271 30.9801 106.212 31.375Z" fill="white"/>
<path d="M106.656 25.1867C106.827 25.4571 106.922 25.7442 106.935 26.0348C106.935 26.2577 106.874 26.3955 106.785 26.402C106.695 26.4086 106.588 26.2843 106.47 26.0882C106.351 25.8921 106.208 25.6241 106.034 25.3381C105.947 25.1954 105.852 25.0614 105.768 24.9388L105.531 24.6119C105.394 24.4245 105.315 24.2954 105.386 24.2562C105.456 24.217 105.663 24.2824 105.918 24.4431C106.064 24.5379 106.196 24.642 106.308 24.7536C106.445 24.8908 106.562 25.0358 106.656 25.1867Z" fill="white"/>
<path d="M67.4992 26.5849C67.4009 25.9083 67.3718 25.2286 67.412 24.5497C67.4452 24.237 67.4661 23.9396 67.5263 23.6639C67.5533 23.5256 67.5725 23.3916 67.6048 23.2641L67.7042 22.8975C67.76 22.6632 67.8472 22.4557 67.9126 22.2726C67.9475 22.1811 67.9771 22.0956 68.0103 22.0182L68.1114 21.8074C68.2344 21.5541 68.3085 21.4163 68.3233 21.419C68.3382 21.4217 68.292 21.565 68.1951 21.821L68.1132 22.034C68.0861 22.1125 68.0635 22.1974 68.0347 22.2895C67.9806 22.4731 67.9056 22.6806 67.8603 22.9138L67.7731 23.2788C67.746 23.4057 67.7312 23.5392 67.7085 23.6759C67.6562 23.9483 67.6431 24.2452 67.6152 24.5552C67.5874 25.2277 67.622 25.9007 67.719 26.5708C67.828 27.2844 68.0059 27.9588 68.1969 28.5684L68.3478 29.0129C68.3713 29.0854 68.3966 29.1557 68.4254 29.2248L68.5047 29.4297C68.5579 29.5637 68.6042 29.6944 68.6582 29.8181L68.8126 30.1744C68.9059 30.4026 69.0088 30.6053 69.0916 30.785L69.2085 31.0351L69.3132 31.2443C69.437 31.4959 69.4989 31.637 69.4876 31.6403C69.4762 31.6436 69.3838 31.5085 69.2347 31.259L69.1117 31.0531C69.0681 30.9773 69.0245 30.8945 68.9765 30.8057C68.8823 30.6276 68.769 30.4244 68.6652 30.1989L68.4969 29.8431C68.4385 29.7195 68.3879 29.5887 68.3303 29.4547L68.2431 29.2494C68.2135 29.1802 68.1856 29.1094 68.1559 29.0369L67.9954 28.5913C67.7719 27.9286 67.6063 27.2589 67.4992 26.5849Z" fill="#516D7B"/>
<path d="M68.4249 23.7007C68.5058 23.3337 68.6199 22.97 68.7667 22.6112C68.8391 22.4477 68.9063 22.2892 68.9839 22.1454C69.0222 22.0735 69.0554 22.0027 69.0937 21.9367L69.2062 21.7466C69.2751 21.6251 69.3519 21.5184 69.4155 21.4236C69.4478 21.3767 69.4775 21.3326 69.5028 21.2928L69.59 21.1839C69.6929 21.0548 69.7565 20.9856 69.7705 20.9894C69.8036 20.9987 69.6074 21.2917 69.3536 21.7782L69.256 21.9694C69.2219 22.0359 69.1932 22.1062 69.1592 22.1781C69.0894 22.3219 69.0301 22.4777 68.9638 22.6417C68.8417 22.9685 68.7275 23.3346 68.6429 23.7203C68.5583 24.106 68.5208 24.4764 68.5016 24.8136C68.5016 24.9825 68.4894 25.1405 68.4964 25.2925C68.4964 25.3676 68.4964 25.4401 68.5025 25.5104L68.5164 25.7108C68.5574 26.2213 68.6246 26.5367 68.5888 26.54C68.574 26.54 68.5417 26.4642 68.4955 26.3221L68.4589 26.2038C68.4467 26.1608 68.4371 26.1134 68.4257 26.0628C68.4039 25.9614 68.3743 25.8448 68.3586 25.7168L68.3298 25.5147C68.3202 25.4444 68.3176 25.3709 68.3106 25.2968C68.2958 25.1448 68.2967 24.9825 68.2949 24.812C68.3045 24.4403 68.3479 24.0693 68.4249 23.7007Z" fill="#516D7B"/>
<path d="M81.2418 16.758C81.8735 17.1484 82.4224 17.5878 82.8752 18.0655C83.0871 18.2834 83.2607 18.5013 83.4176 18.7045C83.5746 18.9077 83.6984 19.1049 83.8031 19.2857C83.9719 19.5704 84.1112 19.8615 84.2199 20.1573C84.2949 20.3671 84.3202 20.4842 84.3072 20.4842C84.2941 20.4842 84.2365 20.3753 84.1327 20.1693C84.029 19.9634 83.8798 19.672 83.6531 19.3195C83.5406 19.143 83.4028 18.9534 83.2476 18.7524C83.0923 18.5514 82.9092 18.3422 82.6964 18.1298C82.2429 17.6666 81.7011 17.2395 81.0831 16.8577C80.7601 16.6629 80.4164 16.4822 80.054 16.3168C79.7156 16.163 79.3607 16.0239 78.9918 15.9006L78.7302 15.8156C78.643 15.7884 78.5558 15.765 78.4686 15.7394C78.2942 15.6849 78.1241 15.6489 77.9602 15.6059C77.7962 15.5628 77.6314 15.5318 77.4735 15.5013C77.3157 15.4708 77.164 15.4408 77.0157 15.4218C76.5505 15.3489 76.076 15.3015 75.5977 15.2801C75.5105 15.2741 75.4372 15.2719 75.3718 15.2709L75.2061 15.2649C75.1189 15.2605 75.0684 15.2561 75.0684 15.2518C75.0684 15.2474 75.1155 15.242 75.2053 15.2371L75.3727 15.2295C75.4487 15.2259 75.525 15.2248 75.6012 15.2262C76.089 15.2269 76.5752 15.2605 77.0515 15.3264C77.2041 15.3433 77.3584 15.3738 77.5224 15.3989C77.6863 15.4239 77.8512 15.4621 78.0238 15.498C78.1965 15.534 78.3727 15.5765 78.5471 15.6277C78.6343 15.6522 78.7267 15.6756 78.8165 15.7029L79.0878 15.7873C79.4683 15.9103 79.834 16.0503 80.1822 16.2062C80.5561 16.374 80.9102 16.5584 81.2418 16.758Z" fill="#516D7B"/>
<path d="M82.2099 18.7278C82.4848 19.0694 82.7003 19.4285 82.8526 19.7988C82.916 19.9605 82.9655 20.1242 83.0008 20.2891C83.0157 20.367 83.0375 20.4411 83.0444 20.5136L83.0619 20.7222C83.073 20.8414 83.073 20.9609 83.0619 21.0801C83.0619 21.1346 83.0567 21.182 83.0505 21.2267L83.0244 21.3492C82.9912 21.4963 82.966 21.5758 82.9503 21.5748C82.9346 21.5737 82.9311 21.4914 82.938 21.3454L82.945 21.2239C82.945 21.1793 82.9407 21.1313 82.938 21.0796C82.9302 20.9761 82.9381 20.8579 82.9084 20.7287L82.877 20.5255C82.8657 20.4553 82.8395 20.3828 82.8212 20.3076C82.7889 20.1562 82.72 19.9982 82.6572 19.8315C82.3477 19.1098 81.7943 18.438 81.0343 17.8611C80.8538 17.732 80.6855 17.6056 80.5111 17.5005C80.4238 17.446 80.3436 17.3915 80.259 17.3452L80.0122 17.2112C79.8596 17.1219 79.7026 17.056 79.5762 16.9933C79.5099 16.9623 79.4497 16.9312 79.3922 16.9056L79.23 16.8386C79.0355 16.7569 78.9309 16.7073 78.9378 16.6986C78.9448 16.6899 79.0643 16.7237 79.2744 16.7923L79.4489 16.8501C79.5117 16.8729 79.5753 16.9007 79.6468 16.929C79.8092 16.9923 79.9656 17.0614 80.1151 17.1361L80.3768 17.2663C80.464 17.312 80.5512 17.3665 80.6436 17.4193C80.8383 17.5332 81.0232 17.6536 81.1974 17.78C81.588 18.0724 81.9274 18.3902 82.2099 18.7278Z" fill="#516D7B"/>
<path d="M72.965 45.936C72.9519 46.5009 72.9013 47.0522 72.8193 47.5822C72.7373 48.1123 72.6126 48.6211 72.4705 49.1027L72.3571 49.4584C72.3179 49.575 72.2699 49.6894 72.2307 49.8027C72.1513 50.0293 72.0484 50.2456 71.9595 50.4564C71.9124 50.561 71.8592 50.6629 71.8103 50.7636C71.7615 50.8644 71.7161 50.9636 71.6595 51.0583L71.5025 51.3389L71.4257 51.4745L71.3438 51.6053C71.2339 51.7774 71.1362 51.9425 71.0237 52.0956C70.9112 52.2486 70.8196 52.3935 70.7106 52.5243C70.6016 52.655 70.5118 52.7792 70.4176 52.8909L70.1508 53.1922C70.1098 53.2374 70.0731 53.2804 70.0356 53.3196L69.9275 53.4286L69.7531 53.5991C69.7102 53.6478 69.6586 53.6932 69.5996 53.7347C69.6289 53.6821 69.6675 53.6317 69.7147 53.5844L69.8682 53.4079L69.9676 53.2957C70.0016 53.2554 70.0356 53.2118 70.0731 53.1655L70.3208 52.8599C70.408 52.7471 70.4952 52.6229 70.5955 52.4905C70.6958 52.3581 70.7865 52.2127 70.8903 52.0607C70.9941 51.9087 71.0891 51.7437 71.1938 51.5704L71.2723 51.4397L71.3446 51.3046L71.4938 51.0251C71.547 50.9303 71.5879 50.8312 71.6368 50.7315C71.6856 50.6318 71.7345 50.5299 71.7789 50.4259C71.8661 50.2161 71.9621 50.0015 72.0406 49.776C72.0798 49.6638 72.1278 49.5499 72.1609 49.4339L72.269 49.0803C72.4042 48.602 72.5307 48.0998 72.6013 47.5703C72.6719 47.0407 72.7278 46.4965 72.7408 45.936C72.7515 44.8805 72.6641 43.8255 72.4792 42.7764C72.3144 41.8078 72.1042 40.94 71.9124 40.2127C71.7205 39.4855 71.5504 38.8977 71.4353 38.4913C71.3786 38.2881 71.3342 38.1301 71.3071 38.0228C71.2873 37.9692 71.2771 37.9144 71.2766 37.8594C71.3107 37.9107 71.3356 37.9642 71.3507 38.019C71.3917 38.1247 71.4502 38.281 71.5199 38.4826C71.6612 38.8857 71.8548 39.4708 72.0667 40.1975C72.2786 40.9242 72.5028 41.7925 72.6824 42.7644C72.8805 43.817 72.9749 44.8761 72.965 45.936Z" fill="#516D7B"/>
<path d="M75.209 54.7485C75.6939 54.2988 76.1137 53.823 76.463 53.3267L76.681 52.9879L76.7342 52.9061C76.7508 52.8789 76.7639 52.8517 76.7787 52.8239L76.8659 52.6605C76.92 52.5542 76.981 52.4535 77.0238 52.3538L77.1432 52.0661C77.2304 51.8842 77.2679 51.7142 77.3176 51.5666C77.3403 51.4925 77.3647 51.4239 77.3813 51.3601L77.4188 51.1853C77.4659 50.975 77.499 50.8584 77.5139 50.8584C77.5287 50.8584 77.5252 50.9772 77.5051 51.1907L77.4868 51.3688C77.4764 51.4337 77.4572 51.5034 77.4406 51.5786C77.4065 51.7497 77.3585 51.9197 77.2967 52.0879L77.1894 52.3815C77.1502 52.4834 77.0926 52.5864 77.0421 52.6948L76.961 52.8582C76.947 52.886 76.9348 52.9127 76.9182 52.9421L76.8668 53.026L76.654 53.3774C75.9768 54.3997 74.9634 55.3216 73.6793 56.0837L73.2381 56.3321L73.1317 56.3921C73.0959 56.4117 73.0575 56.4291 73.0209 56.4465L72.8038 56.5555C72.6599 56.6241 72.5273 56.6944 72.3887 56.7538L71.9884 56.9221C71.7595 57.0185 71.5229 57.1079 71.2794 57.189C71.173 57.2261 71.0753 57.262 70.982 57.2915L70.7204 57.3661C70.4082 57.4549 70.2338 57.4996 70.2268 57.4908C70.2198 57.4821 70.3829 57.4211 70.6803 57.3182L70.9279 57.2332C71.0151 57.2005 71.1111 57.1613 71.2131 57.1242C71.4154 57.0425 71.6552 56.9608 71.8968 56.8431L72.2831 56.6699C72.4166 56.6094 72.5448 56.5375 72.6843 56.4678L72.8945 56.3588C72.9293 56.3403 72.9668 56.3229 73.0017 56.3044L73.1046 56.2439L73.5328 55.9949C74.1501 55.6114 74.711 55.1947 75.209 54.7485Z" fill="#516D7B"/>
<path d="M76.1952 50.725C76.2518 50.4984 76.2876 50.281 76.3094 50.0827C76.3173 49.9836 76.3277 49.8888 76.3286 49.8005C76.3295 49.7123 76.3329 49.6295 76.3286 49.5538C76.3286 49.252 76.3042 49.0635 76.3373 49.0635C76.3705 49.0635 76.4411 49.2454 76.4856 49.5538C76.496 49.63 76.5065 49.7139 76.5091 49.8043C76.5117 49.8948 76.5091 49.9912 76.5091 50.0931C76.4891 50.5348 76.3767 50.9731 76.1751 51.3967C76.1263 51.4936 76.0809 51.5863 76.0295 51.6691C75.978 51.7519 75.93 51.8325 75.8821 51.9028C75.6867 52.1849 75.5219 52.3451 75.4975 52.3386C75.4731 52.332 75.5847 52.155 75.7356 51.869C75.7739 51.7976 75.8158 51.7192 75.8551 51.6342C75.8943 51.5492 75.9362 51.4582 75.978 51.3618C76.0609 51.1652 76.1332 50.9516 76.1952 50.725Z" fill="#516D7B"/>
<path d="M95.3692 21.9431C96.1349 22.0515 96.9093 22.1355 97.689 22.1948C98.0492 22.2176 98.391 22.2427 98.7137 22.253C98.8741 22.259 99.0294 22.2683 99.1794 22.2716L99.6093 22.2808C99.8831 22.2895 100.133 22.2857 100.35 22.2874H100.654L100.91 22.2835C101.217 22.2803 101.388 22.2836 101.389 22.2923C101.39 22.301 101.222 22.3173 100.914 22.3375L100.658 22.3533C100.565 22.3576 100.463 22.3604 100.353 22.3636C100.134 22.3696 99.884 22.3805 99.6076 22.3778H99.1715C99.0206 22.3778 98.8637 22.3707 98.7015 22.3669C98.3762 22.3615 98.03 22.3402 97.6654 22.3206C96.0835 22.2205 94.5286 21.995 93.0373 21.6494C92.6963 21.5666 92.3702 21.4904 92.078 21.4059C91.9298 21.3645 91.7841 21.327 91.6481 21.2861L91.2583 21.1668C91.008 21.0933 90.7917 21.0143 90.599 20.9489C90.5031 20.9157 90.4132 20.8852 90.3321 20.8552L90.1132 20.7702C89.8516 20.6678 89.7112 20.6068 89.7191 20.5986C89.7269 20.5904 89.8821 20.6351 90.1551 20.7228L90.3818 20.7964L90.6557 20.8792C90.8528 20.938 91.0725 21.0099 91.3245 21.0769L91.717 21.1859C91.8539 21.224 91.9995 21.2583 92.1478 21.2948C92.4443 21.3743 92.7687 21.4457 93.1071 21.5242C93.8492 21.6877 94.6044 21.8275 95.3692 21.9431Z" fill="#516D7B"/>
<path d="M99.5752 21.8345C100.119 21.8682 100.64 21.8851 101.114 21.8922C101.352 21.8922 101.577 21.8966 101.788 21.8922C101.999 21.8879 102.195 21.8868 102.375 21.8819C103.092 21.8623 103.536 21.8339 103.541 21.8552C103.547 21.8764 103.105 21.9347 102.386 21.9799C102.205 21.9908 102.007 22.0017 101.795 22.0072C101.582 22.0126 101.353 22.0175 101.114 22.0197C100.634 22.0197 100.105 22.0066 99.5534 21.9723C99.0013 21.938 98.4807 21.8824 98.0107 21.8219C97.7761 21.7893 97.5537 21.7593 97.3479 21.7239C97.1421 21.6885 96.9502 21.6558 96.7776 21.6226C96.0851 21.4875 95.6761 21.3703 95.6857 21.3545C95.6953 21.3387 96.1218 21.4183 96.8194 21.5278C96.9938 21.555 97.1839 21.5823 97.3906 21.6117C97.5973 21.6411 97.8179 21.6661 98.0499 21.6961C98.5165 21.7495 99.031 21.7985 99.5752 21.8345Z" fill="#516D7B"/>
<path d="M91.6666 14.4861C92.1236 14.3243 92.5945 14.1778 93.0759 14.047C93.2992 13.9892 93.512 13.9331 93.7143 13.8885C93.8154 13.8656 93.9122 13.8422 94.0073 13.8226L94.2803 13.7681C94.9779 13.6313 95.4253 13.5834 95.4314 13.5997C95.4375 13.6161 95.0093 13.7022 94.3317 13.8612L94.0701 13.9244C93.9776 13.9462 93.8835 13.9724 93.7849 13.9974C93.587 14.0465 93.3812 14.1064 93.1623 14.1658C92.7262 14.291 92.2597 14.4381 91.78 14.6086C91.3004 14.7792 90.8617 14.9584 90.4719 15.1283C90.2783 15.2155 90.0917 15.2961 89.9234 15.3778C89.8362 15.4182 89.7559 15.4557 89.6783 15.4944L89.4568 15.6034C88.8934 15.8877 88.5629 16.0784 88.5385 16.0631C88.5141 16.0479 88.8115 15.8354 89.3548 15.5287L89.5702 15.41C89.6452 15.3691 89.7271 15.3288 89.81 15.2858C89.9748 15.1992 90.1588 15.1136 90.3524 15.0227C90.7754 14.8295 91.214 14.6504 91.6666 14.4861Z" fill="#516D7B"/>
<path d="M93.9352 14.3326C94.2195 14.2541 94.5108 14.185 94.8073 14.1255C95.0506 14.0776 95.2974 14.0374 95.5468 14.0052C95.9733 13.9507 96.2445 13.9431 96.2445 13.9605C96.2576 14.0024 95.2076 14.1239 94.019 14.46C92.8303 14.7961 91.9757 15.1916 91.9347 15.1579C91.9172 15.1443 92.1091 15.0244 92.4579 14.8626C92.6637 14.7683 92.8765 14.6807 93.0963 14.6C93.3684 14.5017 93.6483 14.4124 93.9352 14.3326Z" fill="#516D7B"/>
<path d="M113.438 30.3525C112.968 31.7238 112.771 33.126 112.851 34.5275C112.883 35.0652 112.948 35.4994 112.994 35.7995C113.039 36.0997 113.071 36.2659 113.055 36.2669C113.029 36.2295 113.013 36.1898 113.006 36.1493C112.981 36.0714 112.946 35.9559 112.908 35.8066C112.837 35.5076 112.747 35.0728 112.695 34.5319C112.566 33.1205 112.742 31.7046 113.219 30.3225C113.362 29.9189 113.519 29.5266 113.698 29.1535C113.877 28.7803 114.056 28.423 114.221 28.0819C114.387 27.7409 114.537 27.4162 114.657 27.109C114.721 26.9559 114.767 26.8067 114.818 26.6634C114.868 26.5201 114.905 26.3817 114.93 26.2483C115.032 25.8296 115.053 25.4047 114.995 24.9828C114.979 24.833 114.944 24.7181 114.928 24.6396C114.913 24.5996 114.908 24.5585 114.913 24.5176C114.942 24.5541 114.962 24.5932 114.972 24.6336C115.021 24.7461 115.058 24.8606 115.081 24.9763C115.175 25.4022 115.175 25.834 115.086 26.2603C115.066 26.3959 115.022 26.5354 114.987 26.6825C114.952 26.8295 114.9 26.9799 114.837 27.1346C114.725 27.4462 114.581 27.7742 114.42 28.1152L113.911 29.1883C113.735 29.5637 113.581 29.9521 113.438 30.3525Z" fill="#516D7B"/>
<path d="M114.525 51.7117C114.906 52.3743 115.346 53.0225 115.846 53.6532L116.195 54.0738C116.304 54.2116 116.431 54.3385 116.543 54.4644C116.656 54.5902 116.765 54.7123 116.878 54.8261L117.206 55.153C117.408 55.3638 117.618 55.5436 117.791 55.7059C117.878 55.7865 117.96 55.8628 118.036 55.9309L118.253 56.1156C118.514 56.3384 118.649 56.4642 118.638 56.4702C118.627 56.4762 118.464 56.3612 118.185 56.1482L117.952 55.9701C117.869 55.9036 117.784 55.8296 117.69 55.7522C117.506 55.5931 117.286 55.4161 117.074 55.2074L116.733 54.8833C116.615 54.77 116.505 54.648 116.384 54.5232C116.263 54.3985 116.136 54.271 116.023 54.1332L115.662 53.7121C114.62 52.4483 113.862 51.1007 113.409 49.7076L113.27 49.2374C113.22 49.0854 113.195 48.9356 113.161 48.7918C113.126 48.648 113.093 48.5091 113.073 48.3745L113.016 47.9883C112.972 47.7426 112.966 47.5187 112.951 47.3226C112.945 47.2245 112.937 47.1336 112.936 47.0502V46.8203C112.942 46.5441 112.952 46.3916 112.967 46.3916C112.982 46.3916 113.001 46.5441 113.022 46.8187L113.038 47.0475C113.045 47.1308 113.06 47.2218 113.072 47.3199C113.099 47.5143 113.116 47.7366 113.168 47.9801L113.24 48.3614C113.265 48.4944 113.306 48.6338 113.34 48.7744C113.374 48.9149 113.406 49.0653 113.46 49.2156L113.608 49.6809C113.85 50.3683 114.157 51.0464 114.525 51.7117Z" fill="#516D7B"/>
<path d="M112.685 49.0863C112.805 49.454 112.94 49.8016 113.071 50.1164C113.14 50.2733 113.203 50.4226 113.27 50.5615C113.337 50.7004 113.398 50.8295 113.456 50.9472C113.691 51.4173 113.854 51.7055 113.822 51.7137C113.791 51.7218 113.582 51.444 113.307 50.9788C113.239 50.8622 113.166 50.7347 113.094 50.5975C113.023 50.4602 112.949 50.3098 112.874 50.1524C112.73 49.837 112.589 49.4867 112.468 49.1174C112.347 48.748 112.26 48.3896 112.196 48.0638C112.167 47.9004 112.137 47.7462 112.121 47.6007C112.104 47.4553 112.088 47.3202 112.077 47.196C112.04 46.7008 112.066 46.3941 112.093 46.3936C112.12 46.393 112.157 46.6981 112.234 47.1884C112.254 47.3109 112.275 47.4449 112.304 47.5888C112.333 47.7326 112.364 47.8856 112.399 48.0469C112.473 48.3656 112.567 48.718 112.685 49.0863Z" fill="#516D7B"/>
<path d="M105.613 54.8827C106.057 55.0892 106.529 55.2711 107.023 55.4275C107.255 55.4945 107.473 55.5626 107.686 55.6116C107.793 55.6372 107.893 55.6661 107.993 55.6863L108.282 55.7456C108.464 55.787 108.636 55.8105 108.784 55.8366C108.859 55.8491 108.928 55.8622 108.992 55.8715L109.166 55.8949C109.379 55.9243 109.497 55.945 109.495 55.9548C109.493 55.9646 109.372 55.9619 109.152 55.9483L108.97 55.9363C108.904 55.9303 108.832 55.921 108.755 55.9123C108.579 55.8938 108.404 55.8698 108.232 55.8399L107.933 55.7854C107.829 55.7669 107.725 55.7407 107.615 55.7168C107.393 55.6715 107.167 55.6078 106.927 55.5403C105.896 55.2368 104.977 54.8016 104.231 54.2623C104.065 54.1359 103.903 54.0177 103.774 53.8962C103.708 53.8363 103.64 53.7807 103.583 53.7235L103.423 53.5601C103.331 53.4652 103.247 53.3673 103.171 53.267C103.137 53.2229 103.103 53.1825 103.076 53.1444L103.009 53.0355C102.93 52.9069 102.893 52.8344 102.907 52.8312C102.921 52.8279 102.986 52.8927 103.088 53.0126L103.175 53.1128C103.207 53.1488 103.246 53.1869 103.285 53.2283C103.365 53.3106 103.447 53.4075 103.56 53.5061L103.73 53.6636C103.789 53.718 103.86 53.7725 103.928 53.827C104.06 53.9425 104.223 54.0552 104.39 54.1762C104.765 54.4331 105.174 54.6697 105.613 54.8827Z" fill="#516D7B"/>
<path d="M108.835 55.1489C109.385 55.2922 109.948 55.4148 110.522 55.5161C110.788 55.5591 111.04 55.6027 111.28 55.6321C111.399 55.6479 111.514 55.6654 111.628 55.6779L111.95 55.7128C112.155 55.7378 112.343 55.7498 112.507 55.7672L112.735 55.7874L112.929 55.8005C113.161 55.8168 113.29 55.8304 113.29 55.8402C113.29 55.8501 113.159 55.8544 112.923 55.8544H112.727C112.656 55.8544 112.578 55.849 112.494 55.8457C112.328 55.8375 112.137 55.8326 111.927 55.8136L111.599 55.7869C111.484 55.7771 111.368 55.7618 111.245 55.7482C111 55.7231 110.742 55.6828 110.47 55.643C109.294 55.4551 108.17 55.1571 107.137 54.7578C106.903 54.6636 106.678 54.5753 106.479 54.4827C106.378 54.4369 106.279 54.395 106.189 54.3503L105.928 54.2212C105.761 54.1406 105.622 54.0578 105.497 53.9892C105.435 53.9537 105.376 53.9216 105.322 53.8905L105.185 53.8028C105.022 53.6966 104.937 53.6351 104.948 53.6285C104.96 53.622 105.064 53.6699 105.245 53.7631L105.394 53.841L105.576 53.9298C105.708 53.993 105.852 54.0692 106.023 54.1433L106.284 54.2637C106.376 54.3057 106.476 54.3449 106.577 54.3879C106.778 54.4756 107.003 54.5584 107.237 54.6483C107.753 54.8352 108.287 55.0024 108.835 55.1489Z" fill="#516D7B"/>
<path d="M96.3534 44.8344C96.3246 46.2834 94.4418 47.4917 92.0994 47.4917C89.757 47.4917 87.8742 46.2834 87.8454 44.8344C87.8367 44.4138 86.7902 44.4127 86.7989 44.8344C86.8092 45.5123 87.148 46.1725 87.7704 46.7279C88.393 47.2832 89.2704 47.7077 90.2872 47.9455C92.3383 48.4227 94.7522 48.0152 96.1502 46.9649C96.9481 46.3662 97.3894 45.6134 97.3999 44.8344C97.4086 44.4138 96.3621 44.4133 96.3534 44.8344Z" fill="#385868"/>
<path d="M80.2812 57.9462C80.4783 59.1904 81.5492 60.2995 83.0902 61.084C84.8344 61.9719 87.0093 62.4001 89.2139 62.5826C93.6162 62.9465 98.5652 62.642 102.28 61.0028C104.125 60.1906 105.594 59.1005 106.415 57.7811C106.659 57.3889 105.647 57.2189 105.406 57.6073C104.01 59.8512 100.494 61.243 96.8655 61.7611C94.7664 62.0607 92.5793 62.1081 90.4366 62.0057C88.3811 61.9076 86.2768 61.6287 84.5178 60.9265C82.8687 60.2679 81.5239 59.1882 81.3269 57.9434C81.2614 57.5289 80.2141 57.5245 80.2804 57.9434L80.2812 57.9462Z" fill="#385868"/>
<path d="M61.7349 67.2988H125.957C126.611 67.2988 127.238 67.4612 127.701 67.7499C128.163 68.0386 128.423 68.4303 128.423 68.8389V94.6092C128.423 94.8533 128.268 95.0881 127.991 95.2608C127.715 95.4335 127.339 95.5304 126.948 95.5304H60.7442C60.3532 95.5304 59.978 95.4335 59.7015 95.2608C59.4249 95.0881 59.2695 94.8533 59.2695 94.6092V68.8389C59.2695 68.4303 59.5293 68.0386 59.9916 67.7499C60.454 67.4612 61.0811 67.2988 61.7349 67.2988Z" fill="#256075"/>
<path d="M125.916 67.2373H62.1518C60.6631 67.2373 59.457 67.9488 59.457 68.8258V69.6642C59.457 68.7871 60.6631 68.0757 62.1518 68.0757H125.916C127.405 68.0757 128.611 68.7871 128.611 69.6642V68.8258C128.611 67.9482 127.405 67.2373 125.916 67.2373Z" fill="#347888"/>
<path d="M129.06 95.8032H59.0195V68.7978C59.0201 68.3282 59.3189 67.8783 59.8501 67.5465C60.3813 67.2147 61.1015 67.0279 61.8529 67.0273H126.228C126.979 67.0279 127.699 67.2147 128.231 67.5465C128.762 67.8783 129.06 68.3282 129.061 68.7978L129.06 95.8032ZM59.8916 95.2584H128.188V68.7978C128.188 68.4731 127.981 68.1615 127.614 67.9316C127.246 67.7018 126.747 67.5726 126.227 67.5721H61.8529C61.3328 67.5726 60.8341 67.7018 60.4665 67.9316C60.0988 68.1615 59.892 68.4731 59.8916 68.7978V95.2584Z" fill="#385868"/>
<path d="M44.7604 92.5693C43.6173 92.5671 42.501 92.3535 41.5522 91.9553C40.6033 91.5571 39.8648 90.9922 39.4296 90.3319C38.9944 89.6717 38.8823 88.9461 39.1073 88.2461C39.3323 87.546 39.8844 86.9032 40.6938 86.3988C41.5031 85.8949 42.5336 85.5517 43.6548 85.4133C44.7761 85.2749 45.938 85.3468 46.9937 85.6209C48.0494 85.8943 48.9516 86.3574 49.5863 86.9512C50.221 87.545 50.5597 88.2428 50.5597 88.957C50.5558 89.9163 49.9429 90.8348 48.8557 91.5124C47.7685 92.1896 46.2957 92.5698 44.7604 92.5693ZM44.7604 86.3258C43.9278 86.328 43.1148 86.4838 42.4241 86.7741C41.7335 87.065 41.1961 87.4763 40.8798 87.9579C40.5635 88.4389 40.4825 88.9679 40.6469 89.4772C40.8114 89.9871 41.2141 90.4551 41.804 90.8222C42.394 91.1894 43.1447 91.4389 43.9616 91.5397C44.7785 91.6399 45.6248 91.5871 46.3936 91.3877C47.1624 91.1883 47.8193 90.8506 48.2815 90.418C48.7436 89.9855 48.9901 89.4772 48.9899 88.957C48.9863 88.258 48.5389 87.5885 47.746 87.095C46.9531 86.602 45.8794 86.3252 44.7604 86.3258Z" fill="#385868"/>
<path d="M47.1572 86.2729V87.4779C46.634 91.0919 41.446 93.9301 35.1226 93.9301C28.7991 93.9301 23.6111 91.0919 23.0879 87.4779V86.2729C23.138 85.9221 23.2328 85.5745 23.3713 85.2335C23.4304 85.0881 23.5653 84.959 23.7548 84.8664C23.9443 84.7743 24.1776 84.7242 24.4178 84.7236H45.8238C46.0642 84.7242 46.2974 84.7743 46.4869 84.8664C46.6764 84.959 46.8113 85.0881 46.8703 85.2335C47.01 85.5745 47.106 85.9221 47.1572 86.2729Z" fill="#68B9E1"/>
<path d="M47.1599 84.9971C47.1601 85.1616 47.1332 85.3261 47.0796 85.4874H33.6287C33.6287 86.4499 32.468 87.2306 31.036 87.2306H30.8738C30.5287 87.2289 30.1877 87.1832 29.8725 87.0955C29.5572 87.0072 29.2746 86.8798 29.0425 86.7201C28.5493 86.384 28.2779 85.9433 28.2829 85.4874H23.258C23.2044 85.3261 23.1775 85.1616 23.1777 84.9971H47.1599Z" fill="#ACD8F8"/>
<path d="M35.2092 94.2033C32.0584 94.2033 29.0471 93.5153 26.7317 92.2662C24.4164 91.017 23.0045 89.3288 22.7402 87.5033V87.4788V86.2493C22.7933 85.8843 22.8928 85.5226 23.0376 85.1674C23.1203 84.9631 23.3093 84.7823 23.5749 84.6526C23.8404 84.5235 24.1675 84.4527 24.5044 84.4521H45.9105C46.2481 84.4521 46.5761 84.5224 46.8426 84.6521C47.1091 84.7817 47.2987 84.9631 47.3817 85.1674C47.5262 85.5226 47.6252 85.8843 47.6782 86.2493V86.2738V87.5033C47.4165 89.3288 45.9959 91.0203 43.6867 92.2662C41.3774 93.512 38.36 94.2033 35.2092 94.2033ZM23.6106 87.4663C23.8591 89.1458 25.169 90.7033 27.3021 91.8538C29.4596 93.0174 32.2677 93.6586 35.2092 93.6586C38.1507 93.6586 40.9597 93.0179 43.1163 91.8538C45.2486 90.7033 46.5593 89.1458 46.8078 87.4663V86.2864C46.7584 85.9541 46.6674 85.625 46.5358 85.302C46.5004 85.2148 46.4198 85.138 46.3067 85.083C46.1934 85.0274 46.054 84.9975 45.9105 84.9975H24.5044C24.3608 84.9975 24.2215 85.0274 24.1082 85.083C23.995 85.138 23.9144 85.2148 23.8792 85.302C23.7474 85.625 23.6564 85.9541 23.6071 86.2864L23.6106 87.4663Z" fill="#385868"/>
<path d="M22.2148 93.167H48.0284C48.0284 93.7591 47.6516 94.3273 46.9811 94.7462C46.3105 95.1652 45.4011 95.4005 44.4528 95.4005H25.7904C24.8421 95.4005 23.9327 95.1652 23.2621 94.7462C22.5916 94.3273 22.2148 93.7591 22.2148 93.167Z" fill="#68B9E1"/>
<path d="M47.5044 93.2764C47.5033 93.4414 47.4741 93.6054 47.4172 93.7667H33.4325C33.4325 94.7292 32.2247 95.5099 30.7361 95.5099H30.5678C30.2112 95.5093 29.8584 95.4641 29.5306 95.3764C29.2029 95.2887 28.9069 95.1607 28.6605 94.9994C28.1512 94.6682 27.8681 94.2259 27.8713 93.7667H22.6458C22.5889 93.6054 22.5596 93.4414 22.5586 93.2764H47.5044Z" fill="#ACD8F8"/>
<path d="M44.5412 95.6738H25.8787C24.8152 95.6732 23.7955 95.409 23.0434 94.9389C22.2914 94.4693 21.8683 93.8325 21.8672 93.1679V92.8955H48.5528V93.1679C48.5516 93.8325 48.1286 94.4693 47.3765 94.9389C46.6244 95.409 45.6048 95.6732 44.5412 95.6738ZM22.7698 93.4403C22.8758 93.9082 23.2486 94.3369 23.8197 94.6469C24.3908 94.9574 25.122 95.1285 25.8787 95.129H44.5412C45.298 95.1285 46.029 94.9574 46.6001 94.6469C47.1711 94.3369 47.544 93.9082 47.6502 93.4403H22.7698Z" fill="#385868"/>
<path d="M47.1591 86.3311H40.793V86.7124H47.1591V86.3311Z" fill="#385868"/>
</svg>
