<svg width="52" height="84" viewBox="0 0 52 84" fill="none" xmlns="http://www.w3.org/2000/svg">
<path d="M1.19066 50.0067L1.68501 49.9318L1.19066 50.0067ZM27.6907 71.5067L27.5592 71.0243L27.6907 71.5067ZM43.1906 53.0067L42.7099 53.1441L43.1906 53.0067ZM23.6906 35.0067L23.8449 35.4823L23.6906 35.0067ZM9.25623 83.4361C9.49707 83.5712 9.80182 83.4855 9.93693 83.2446L12.1385 79.32C12.2736 79.0791 12.1879 78.7744 11.9471 78.6393C11.7063 78.5042 11.4015 78.5899 11.2664 78.8307L9.30941 82.3193L5.82083 80.3623C5.57999 80.2272 5.27524 80.3129 5.14013 80.5538C5.00503 80.7946 5.09074 81.0993 5.33158 81.2345L9.25623 83.4361ZM9.98218 82.8646C9.89242 82.5455 9.80689 82.2213 9.72559 81.8923L8.7548 82.1323C8.83858 82.4712 8.9268 82.8057 9.01953 83.1354L9.98218 82.8646ZM9.29661 79.909C9.17422 79.2554 9.06674 78.5872 8.97399 77.9064L7.98314 78.0413C8.07802 78.7378 8.18811 79.4224 8.3137 80.093L9.29661 79.909ZM8.74529 75.8889C8.68428 75.2215 8.63637 74.5446 8.60139 73.8599L7.60269 73.9109C7.63833 74.6086 7.68717 75.2988 7.74944 75.9799L8.74529 75.8889ZM8.5356 71.8246C8.52614 71.1505 8.52856 70.4707 8.54269 69.7868L7.5429 69.7662C7.52854 70.4614 7.52607 71.1527 7.5357 71.8386L8.5356 71.8246ZM8.61868 67.7497C8.655 67.0737 8.70239 66.3952 8.76067 65.7158L7.76433 65.6303C7.70515 66.3202 7.65702 67.0093 7.62012 67.696L8.61868 67.7497ZM8.96667 63.6876C9.04583 63.013 9.13555 62.3389 9.23566 61.6667L8.24656 61.5194C8.14493 62.2018 8.05385 62.8862 7.97348 63.5711L8.96667 63.6876ZM9.56741 59.6549C9.68882 58.9843 9.82055 58.317 9.96244 57.6547L8.98462 57.4452C8.84048 58.1181 8.70669 58.7958 8.5834 59.4767L9.56741 59.6549ZM10.422 55.6689C10.5872 55.0057 10.7627 54.3491 10.9483 53.7007L9.9869 53.4255C9.79802 54.0853 9.61956 54.7531 9.45167 55.4272L10.422 55.6689ZM11.5442 51.7541C11.7568 51.1032 11.98 50.4627 12.2136 49.8342L11.2762 49.4859C11.0379 50.1273 10.8103 50.7804 10.5936 51.4435L11.5442 51.7541ZM12.9616 47.9471C13.2293 47.3136 13.5081 46.6953 13.7978 46.0942L12.8969 45.6601C12.5998 46.2767 12.3142 46.91 12.0404 47.558L12.9616 47.9471ZM14.7279 44.2921C15.0605 43.6908 15.405 43.1115 15.7611 42.5563L14.9194 42.0164C14.5509 42.5909 14.1953 43.189 13.8528 43.8081L14.7279 44.2921ZM16.9107 40.9035C17.3257 40.3546 17.7538 39.8378 18.1944 39.3558L17.4564 38.6811C16.9932 39.1877 16.5454 39.7286 16.113 40.3004L16.9107 40.9035ZM19.6161 37.9623C20.13 37.5147 20.6579 37.1132 21.1994 36.7613L20.6544 35.9228C20.0707 36.3023 19.5056 36.7324 18.9593 37.2082L19.6161 37.9623ZM22.9291 35.8284C23.2307 35.6981 23.5359 35.5826 23.8449 35.4823L23.5363 34.5311C23.1968 34.6413 22.8621 34.768 22.5324 34.9104L22.9291 35.8284ZM23.8449 35.4823C24.1741 35.3756 24.4985 35.2864 24.8183 35.214L24.5974 34.2387C24.2474 34.318 23.8936 34.4152 23.5363 34.5311L23.8449 35.4823ZM26.8089 34.9697C27.4921 34.9581 28.1542 35.023 28.7958 35.1552L28.9976 34.1757C28.2855 34.029 27.55 33.957 26.792 33.9698L26.8089 34.9697ZM30.7033 35.7636C31.3131 36.0286 31.9038 36.3545 32.475 36.7328L33.0272 35.899C32.4118 35.4915 31.77 35.1368 31.1019 34.8465L30.7033 35.7636ZM34.0873 37.9787C34.5913 38.4254 35.0766 38.9108 35.543 39.4274L36.2852 38.7572C35.7966 38.216 35.285 37.704 34.7506 37.2303L34.0873 37.9787ZM36.855 41.0225C37.2683 41.5714 37.6629 42.1412 38.0386 42.7245L38.8793 42.1831C38.4916 41.581 38.0831 40.9911 37.6539 40.421L36.855 41.0225ZM39.1083 44.5071C39.4509 45.1191 39.7734 45.7369 40.0755 46.3526L40.9732 45.9121C40.6637 45.2813 40.3329 44.6475 39.9809 44.0187L39.1083 44.5071ZM40.9474 48.2479C41.232 48.9085 41.4916 49.5564 41.726 50.1811L42.6622 49.8298C42.4224 49.1907 42.1569 48.528 41.8658 47.8522L40.9474 48.2479ZM42.4105 52.1537C42.52 52.4981 42.6198 52.829 42.7099 53.1441L43.6714 52.8694C43.5786 52.5445 43.4759 52.2041 43.3635 51.8507L42.4105 52.1537ZM42.7099 53.1441C42.7885 53.4194 42.8469 53.6994 42.886 53.9836L43.8767 53.8473C43.8313 53.5177 43.7634 53.1913 43.6714 52.8694L42.7099 53.1441ZM42.8985 55.7138C42.835 56.2764 42.7092 56.8509 42.5265 57.4325L43.4805 57.7322C43.6802 57.0966 43.8207 56.4592 43.8922 55.8259L42.8985 55.7138ZM41.8632 59.0914C41.6098 59.6167 41.3165 60.1423 40.9879 60.6647L41.8343 61.1971C42.1809 60.6462 42.4928 60.0879 42.7639 59.5259L41.8632 59.0914ZM39.9518 62.1523C39.5891 62.6273 39.2007 63.0956 38.7908 63.5543L39.5365 64.2206C39.9625 63.7439 40.3673 63.2558 40.7466 62.7593L39.9518 62.1523ZM37.5285 64.8719C37.0938 65.296 36.6432 65.708 36.1806 66.1051L36.8319 66.8639C37.3103 66.4532 37.7767 66.0269 38.2269 65.5876L37.5285 64.8719ZM34.7575 67.2516C34.2669 67.6222 33.7683 67.9744 33.266 68.3054L33.8163 69.1404C34.3368 68.7974 34.8529 68.4328 35.3602 68.0495L34.7575 67.2516ZM31.7099 69.2562C31.1671 69.5618 30.6256 69.8394 30.0907 70.0857L30.5089 70.994C31.0701 70.7356 31.6357 70.4456 32.2005 70.1276L31.7099 69.2562ZM28.4145 70.7609C28.1248 70.86 27.8394 70.948 27.5592 71.0243L27.8221 71.9891C28.1241 71.9069 28.4297 71.8126 28.7382 71.7071L28.4145 70.7609ZM27.5592 71.0243C27.2506 71.1084 26.9269 71.1778 26.5893 71.2321L26.748 72.2194C27.1184 72.1598 27.477 72.0832 27.8221 71.9891L27.5592 71.0243ZM24.5801 71.3764C23.9308 71.3719 23.2517 71.3225 22.5501 71.2277L22.4162 72.2187C23.1567 72.3188 23.8783 72.3715 24.5731 72.3764L24.5801 71.3764ZM20.5421 70.8452C19.8952 70.6873 19.2373 70.4941 18.5737 70.2655L18.248 71.211C18.94 71.4494 19.6274 71.6513 20.305 71.8167L20.5421 70.8452ZM16.6598 69.5129C16.0435 69.2401 15.4269 68.9374 14.814 68.6046L14.3369 69.4834C14.9734 69.829 15.6142 70.1437 16.2551 70.4273L16.6598 69.5129ZM13.0459 67.5522C12.4773 67.1828 11.9157 66.7866 11.3645 66.3637L10.7558 67.1571C11.3279 67.5961 11.9108 68.0073 12.501 68.3908L13.0459 67.5522ZM9.78077 65.0464C9.27628 64.592 8.78444 64.1131 8.3082 63.6098L7.58185 64.2972C8.07667 64.8201 8.58758 65.3175 9.11146 65.7894L9.78077 65.0464ZM6.95576 62.0598C6.53032 61.5302 6.12198 60.9782 5.73335 60.4035L4.90501 60.9638C5.30924 61.5615 5.73389 62.1356 6.17619 62.6861L6.95576 62.0598ZM4.65368 58.6557C4.32153 58.0646 4.00969 57.4528 3.72044 56.8203L2.81103 57.2363C3.11191 57.8941 3.43633 58.5306 3.78188 59.1455L4.65368 58.6557ZM2.94376 54.9192C2.71375 54.283 2.50591 53.6282 2.32221 52.9547L1.35746 53.2179C1.54825 53.9174 1.76421 54.5978 2.00333 55.2592L2.94376 54.9192ZM1.85934 50.9517C1.79534 50.6159 1.73716 50.276 1.68501 49.9318L0.696298 50.0816C0.750336 50.4383 0.81065 50.7907 0.87703 51.1389L1.85934 50.9517ZM1.68501 49.9318C1.63967 49.6326 1.60844 49.3161 1.59142 48.983L0.592721 49.034C0.611263 49.3969 0.645535 49.7466 0.696298 50.0816L1.68501 49.9318ZM1.63906 47.0205C1.69409 46.4014 1.78505 45.7473 1.91119 45.0621L0.927714 44.8811C0.796621 45.5932 0.701089 46.2783 0.642984 46.9319L1.63906 47.0205ZM2.34335 43.1132C2.50362 42.4889 2.68828 41.8458 2.89665 41.1864L1.94313 40.8851C1.72964 41.5606 1.53988 42.2213 1.37476 42.8645L2.34335 43.1132ZM3.54673 39.2853C3.77228 38.6706 4.01616 38.045 4.27784 37.4103L3.35334 37.0291C3.08686 37.6754 2.83819 38.3133 2.60793 38.9408L3.54673 39.2853ZM5.07934 35.561C5.35286 34.9587 5.64115 34.3502 5.94378 33.737L5.04704 33.2944C4.73977 33.917 4.44687 34.5352 4.16882 35.1475L5.07934 35.561ZM6.86565 31.9383C7.17694 31.3526 7.50057 30.764 7.83618 30.1736L6.96685 29.6794C6.6266 30.2779 6.2984 30.8748 5.98261 31.469L6.86565 31.9383ZM8.85594 28.4361C9.20141 27.8654 9.55761 27.2944 9.92423 26.7239L9.08298 26.1833C8.71153 26.7612 8.35059 27.3399 8.00049 27.9182L8.85594 28.4361ZM11.039 25.0388C11.4159 24.4853 11.8024 23.9333 12.198 23.384L11.3866 22.7996C10.9858 23.3561 10.5943 23.9152 10.2124 24.4761L11.039 25.0388ZM13.3975 21.7645C13.8037 21.2311 14.2185 20.7012 14.6415 20.1758L13.8626 19.5486C13.4339 20.0812 13.0135 20.6182 12.602 21.1586L13.3975 21.7645ZM15.929 18.6211C16.3645 18.1098 16.8079 17.6039 17.2589 17.1042L16.5164 16.4342C16.059 16.9411 15.6094 17.4543 15.1678 17.9726L15.929 18.6211ZM18.6314 15.6272C19.0965 15.1415 19.5688 14.6629 20.0481 14.1924L19.3475 13.4788C18.8607 13.9567 18.3812 14.4426 17.9091 14.9356L18.6314 15.6272ZM21.5083 12.804C22.0032 12.3486 22.5047 11.9022 23.0127 11.4659L22.361 10.7073C21.8442 11.1513 21.3342 11.6052 20.8311 12.0681L21.5083 12.804ZM24.564 10.1806C25.0901 9.76073 25.6224 9.35201 26.1605 8.95539L25.5672 8.1504C25.0185 8.55484 24.476 8.97138 23.9402 9.39905L24.564 10.1806ZM27.802 7.79618C28.359 7.4199 28.9216 7.05705 29.4896 6.7086L28.9667 5.85622C28.3858 6.21255 27.8109 6.58334 27.2422 6.96755L27.802 7.79618ZM31.2266 5.69789C31.8153 5.37387 32.4091 5.06581 33.0078 4.7747L32.5705 3.87538C31.9562 4.17408 31.3474 4.48993 30.7444 4.82181L31.2266 5.69789ZM34.8319 3.94746C35.4491 3.68774 36.0709 3.44655 36.6969 3.22495L36.3632 2.28226C35.7184 2.51053 35.0785 2.75875 34.444 3.02575L34.8319 3.94746ZM38.6023 2.61567C39.2445 2.43234 39.8906 2.27017 40.5404 2.13023L40.3299 1.15264C39.658 1.29733 38.9905 1.46488 38.3278 1.65408L38.6023 2.61567ZM42.504 1.77771C43.1615 1.68331 43.8224 1.61227 44.4863 1.56567L44.4163 0.568128C43.7278 0.616447 43.0429 0.690093 42.3619 0.78786L42.504 1.77771ZM46.4797 1.5003C47.1402 1.50348 47.8035 1.5315 48.4691 1.58545L48.5499 0.588713C47.8587 0.532703 47.1701 0.503614 46.4845 0.500316L46.4797 1.5003ZM50.4438 1.82143C50.7727 1.87349 51.1022 1.93205 51.4322 1.99725L51.626 1.01621C51.2835 0.948554 50.9416 0.887767 50.6001 0.833723L50.4438 1.82143Z" fill="#FFB600"/>
</svg>
