    <svg width="360" height="175" viewBox="0 0 360 175" fill="none" xmlns="http://www.w3.org/2000/svg">
<g clip-path="url(#clip0_914_22398)">
<circle cx="74" cy="79" r="50" fill="#A5A6F6"/>
<path d="M124 79C124 106.614 82.6142 55 55 55C27.3858 55 24 106.614 24 79C24 51.3858 46.3858 29 74 29C101.614 29 124 51.3858 124 79Z" fill="#B3B4FF"/>
<path d="M66.8706 81.3516H62.4644L61.5425 84H59.4878L63.7847 72.625H65.5581L69.8628 84H67.8003L66.8706 81.3516ZM63.0191 79.7578H66.3159L64.6675 75.0391L63.0191 79.7578ZM75.0819 77.2812C74.8319 77.2396 74.5741 77.2188 74.3084 77.2188C73.4386 77.2188 72.8527 77.5521 72.5506 78.2188V84H70.6522V75.5469H72.4647L72.5116 76.4922C72.9699 75.7578 73.6053 75.3906 74.4178 75.3906C74.6886 75.3906 74.9126 75.4271 75.0897 75.5L75.0819 77.2812ZM78.7306 73.4922V75.5469H80.2228V76.9531H78.7306V81.6719C78.7306 81.9948 78.7931 82.2292 78.9181 82.375C79.0483 82.5156 79.2775 82.5859 79.6056 82.5859C79.8244 82.5859 80.0457 82.5599 80.2697 82.5078V83.9766C79.8374 84.0964 79.4207 84.1562 79.0197 84.1562C77.5614 84.1562 76.8322 83.3516 76.8322 81.7422V76.9531H75.4416V75.5469H76.8322V73.4922H78.7306ZM86.0981 81.7031C86.0981 81.3646 85.9575 81.1068 85.6763 80.9297C85.4002 80.7526 84.9393 80.5964 84.2934 80.4609C83.6476 80.3255 83.1085 80.1536 82.6763 79.9453C81.7283 79.487 81.2544 78.8229 81.2544 77.9531C81.2544 77.224 81.5617 76.6146 82.1763 76.125C82.7908 75.6354 83.5721 75.3906 84.52 75.3906C85.5304 75.3906 86.3455 75.6406 86.9653 76.1406C87.5903 76.6406 87.9028 77.2891 87.9028 78.0859H86.0044C86.0044 77.7214 85.869 77.4193 85.5981 77.1797C85.3273 76.9349 84.9679 76.8125 84.52 76.8125C84.1033 76.8125 83.7622 76.9089 83.4966 77.1016C83.2361 77.2943 83.1059 77.5521 83.1059 77.875C83.1059 78.1667 83.2283 78.3932 83.4731 78.5547C83.7179 78.7161 84.2127 78.8802 84.9575 79.0469C85.7023 79.2083 86.2856 79.4036 86.7075 79.6328C87.1346 79.8568 87.4497 80.1276 87.6528 80.4453C87.8611 80.763 87.9653 81.1484 87.9653 81.6016C87.9653 82.362 87.6502 82.9792 87.02 83.4531C86.3898 83.9219 85.5643 84.1562 84.5434 84.1562C83.8507 84.1562 83.2335 84.0312 82.6919 83.7812C82.1502 83.5312 81.7283 83.1875 81.4263 82.75C81.1242 82.3125 80.9731 81.8411 80.9731 81.3359H82.8169C82.8429 81.7839 83.0122 82.1302 83.3247 82.375C83.6372 82.6146 84.0513 82.7344 84.5669 82.7344C85.0669 82.7344 85.4471 82.6406 85.7075 82.4531C85.9679 82.2604 86.0981 82.0104 86.0981 81.7031Z" fill="#3C4852"/>
<circle cx="207" cy="79" r="50" fill="#FCDDEC"/>
<path d="M157 79.127C157 51.5127 198.386 103.127 226 103.127C253.614 103.127 257 51.5127 257 79.127C257 106.741 234.614 129.127 207 129.127C179.386 129.127 157 106.741 157 79.127Z" fill="#FFEAF4"/>
<path d="M179.237 80.2969C179.123 81.5104 178.675 82.4583 177.893 83.1406C177.112 83.8177 176.073 84.1562 174.776 84.1562C173.87 84.1562 173.071 83.9427 172.378 83.5156C171.69 83.0833 171.159 82.4714 170.784 81.6797C170.409 80.888 170.214 79.9688 170.198 78.9219V77.8594C170.198 76.7865 170.388 75.8411 170.768 75.0234C171.149 74.2057 171.693 73.5755 172.401 73.1328C173.115 72.6901 173.938 72.4688 174.87 72.4688C176.125 72.4688 177.136 72.8099 177.901 73.4922C178.667 74.1745 179.112 75.138 179.237 76.3828H177.268C177.175 75.5651 176.935 74.9766 176.55 74.6172C176.169 74.2526 175.61 74.0703 174.87 74.0703C174.011 74.0703 173.349 74.3854 172.886 75.0156C172.427 75.6406 172.193 76.5599 172.182 77.7734V78.7812C172.182 80.0104 172.401 80.9479 172.839 81.5938C173.281 82.2396 173.927 82.5625 174.776 82.5625C175.552 82.5625 176.136 82.388 176.526 82.0391C176.917 81.6901 177.164 81.1094 177.268 80.2969H179.237ZM180.152 79.6953C180.152 78.8672 180.316 78.1224 180.644 77.4609C180.972 76.7943 181.433 76.2839 182.027 75.9297C182.62 75.5703 183.303 75.3906 184.073 75.3906C185.214 75.3906 186.139 75.7578 186.847 76.4922C187.56 77.2266 187.946 78.2005 188.003 79.4141L188.011 79.8594C188.011 80.6927 187.849 81.4375 187.527 82.0938C187.209 82.75 186.751 83.2578 186.152 83.6172C185.558 83.9766 184.87 84.1562 184.089 84.1562C182.896 84.1562 181.941 83.7604 181.222 82.9688C180.508 82.1719 180.152 81.112 180.152 79.7891V79.6953ZM182.05 79.8594C182.05 80.7292 182.23 81.4115 182.589 81.9062C182.948 82.3958 183.448 82.6406 184.089 82.6406C184.73 82.6406 185.227 82.3906 185.581 81.8906C185.941 81.3906 186.12 80.6589 186.12 79.6953C186.12 78.8411 185.935 78.1641 185.566 77.6641C185.201 77.1641 184.704 76.9141 184.073 76.9141C183.454 76.9141 182.961 77.1615 182.597 77.6562C182.232 78.1458 182.05 78.8802 182.05 79.8594ZM191.082 75.5469L191.136 76.4297C191.73 75.737 192.542 75.3906 193.574 75.3906C194.704 75.3906 195.477 75.8229 195.894 76.6875C196.509 75.8229 197.373 75.3906 198.488 75.3906C199.42 75.3906 200.113 75.6484 200.566 76.1641C201.024 76.6797 201.259 77.4401 201.269 78.4453V84H199.371V78.5C199.371 77.9635 199.253 77.5703 199.019 77.3203C198.785 77.0703 198.397 76.9453 197.855 76.9453C197.423 76.9453 197.069 77.0625 196.792 77.2969C196.522 77.526 196.332 77.8281 196.222 78.2031L196.23 84H194.332V78.4375C194.306 77.4427 193.798 76.9453 192.808 76.9453C192.048 76.9453 191.509 77.2552 191.191 77.875V84H189.292V75.5469H191.082ZM204.683 75.5469L204.738 76.4297C205.332 75.737 206.144 75.3906 207.176 75.3906C208.306 75.3906 209.079 75.8229 209.496 76.6875C210.111 75.8229 210.975 75.3906 212.09 75.3906C213.022 75.3906 213.715 75.6484 214.168 76.1641C214.626 76.6797 214.861 77.4401 214.871 78.4453V84H212.972V78.5C212.972 77.9635 212.855 77.5703 212.621 77.3203C212.387 77.0703 211.999 76.9453 211.457 76.9453C211.025 76.9453 210.67 77.0625 210.394 77.2969C210.124 77.526 209.933 77.8281 209.824 78.2031L209.832 84H207.933V78.4375C207.907 77.4427 207.4 76.9453 206.41 76.9453C205.65 76.9453 205.111 77.2552 204.793 77.875V84H202.894V75.5469H204.683ZM220.223 84.1562C219.02 84.1562 218.043 83.7786 217.293 83.0234C216.548 82.263 216.176 81.2526 216.176 79.9922V79.7578C216.176 78.9141 216.337 78.1615 216.66 77.5C216.988 76.8333 217.447 76.3151 218.035 75.9453C218.624 75.5755 219.28 75.3906 220.004 75.3906C221.155 75.3906 222.043 75.7578 222.668 76.4922C223.298 77.2266 223.613 78.2656 223.613 79.6094V80.375H218.09C218.147 81.0729 218.379 81.625 218.785 82.0312C219.197 82.4375 219.712 82.6406 220.332 82.6406C221.202 82.6406 221.91 82.2891 222.457 81.5859L223.481 82.5625C223.142 83.0677 222.689 83.4609 222.121 83.7422C221.559 84.0182 220.926 84.1562 220.223 84.1562ZM219.996 76.9141C219.475 76.9141 219.054 77.0964 218.731 77.4609C218.413 77.8255 218.21 78.3333 218.121 78.9844H221.738V78.8438C221.697 78.2083 221.528 77.7292 221.231 77.4062C220.934 77.0781 220.522 76.9141 219.996 76.9141ZM229.2 77.2812C228.95 77.2396 228.692 77.2188 228.426 77.2188C227.556 77.2188 226.971 77.5521 226.668 78.2188V84H224.77V75.5469H226.583L226.629 76.4922C227.088 75.7578 227.723 75.3906 228.536 75.3906C228.806 75.3906 229.03 75.4271 229.208 75.5L229.2 77.2812ZM233.395 82.6406C233.869 82.6406 234.263 82.5026 234.575 82.2266C234.888 81.9505 235.054 81.6094 235.075 81.2031H236.864C236.843 81.7292 236.679 82.2214 236.372 82.6797C236.065 83.1328 235.648 83.4922 235.122 83.7578C234.596 84.0234 234.028 84.1562 233.419 84.1562C232.236 84.1562 231.299 83.7734 230.606 83.0078C229.914 82.2422 229.567 81.1849 229.567 79.8359V79.6406C229.567 78.3542 229.911 77.3255 230.598 76.5547C231.286 75.7786 232.223 75.3906 233.411 75.3906C234.416 75.3906 235.234 75.6849 235.864 76.2734C236.499 76.8568 236.833 77.625 236.864 78.5781H235.075C235.054 78.0938 234.888 77.6953 234.575 77.3828C234.268 77.0703 233.874 76.9141 233.395 76.9141C232.781 76.9141 232.307 77.138 231.973 77.5859C231.64 78.0286 231.471 78.7031 231.466 79.6094V79.9141C231.466 80.8307 231.63 81.5156 231.958 81.9688C232.291 82.4167 232.77 82.6406 233.395 82.6406ZM241.7 84.1562C240.497 84.1562 239.521 83.7786 238.771 83.0234C238.026 82.263 237.653 81.2526 237.653 79.9922V79.7578C237.653 78.9141 237.815 78.1615 238.138 77.5C238.466 76.8333 238.924 76.3151 239.513 75.9453C240.101 75.5755 240.758 75.3906 241.482 75.3906C242.633 75.3906 243.521 75.7578 244.146 76.4922C244.776 77.2266 245.091 78.2656 245.091 79.6094V80.375H239.568C239.625 81.0729 239.857 81.625 240.263 82.0312C240.674 82.4375 241.19 82.6406 241.81 82.6406C242.679 82.6406 243.388 82.2891 243.935 81.5859L244.958 82.5625C244.62 83.0677 244.166 83.4609 243.599 83.7422C243.036 84.0182 242.403 84.1562 241.7 84.1562ZM241.474 76.9141C240.953 76.9141 240.531 77.0964 240.208 77.4609C239.89 77.8255 239.687 78.3333 239.599 78.9844H243.216V78.8438C243.174 78.2083 243.005 77.7292 242.708 77.4062C242.411 77.0781 242 76.9141 241.474 76.9141Z" fill="#3C4852"/>
<circle cx="346" cy="79" r="50" fill="#FFCEBF"/>
<path d="M346 129.063C318.386 129.063 370 87.6777 370 60.0635C370 32.4492 318.386 29.0635 346 29.0635C373.614 29.0635 396 51.4492 396 79.0635C396 106.678 373.614 129.063 346 129.063Z" fill="#FFDDD3"/>
<path d="M321.265 81.0703C321.265 80.5703 321.088 80.1849 320.733 79.9141C320.384 79.6432 319.752 79.3698 318.835 79.0938C317.918 78.8177 317.189 78.5104 316.647 78.1719C315.611 77.5208 315.093 76.6719 315.093 75.625C315.093 74.7083 315.465 73.9531 316.21 73.3594C316.96 72.7656 317.931 72.4688 319.124 72.4688C319.916 72.4688 320.621 72.6146 321.241 72.9062C321.861 73.1979 322.348 73.6146 322.702 74.1562C323.056 74.6927 323.233 75.2891 323.233 75.9453H321.265C321.265 75.3516 321.077 74.888 320.702 74.5547C320.332 74.2161 319.801 74.0469 319.108 74.0469C318.463 74.0469 317.96 74.1849 317.601 74.4609C317.246 74.737 317.069 75.1224 317.069 75.6172C317.069 76.0339 317.262 76.3828 317.647 76.6641C318.033 76.9401 318.668 77.2109 319.554 77.4766C320.439 77.737 321.15 78.0365 321.687 78.375C322.223 78.7083 322.616 79.0938 322.866 79.5312C323.116 79.9635 323.241 80.4714 323.241 81.0547C323.241 82.0026 322.877 82.7578 322.147 83.3203C321.424 83.8776 320.439 84.1562 319.194 84.1562C318.371 84.1562 317.614 84.0052 316.921 83.7031C316.233 83.3958 315.697 82.974 315.312 82.4375C314.931 81.901 314.741 81.276 314.741 80.5625H316.718C316.718 81.2083 316.931 81.7083 317.358 82.0625C317.786 82.4167 318.397 82.5938 319.194 82.5938C319.882 82.5938 320.397 82.4557 320.741 82.1797C321.09 81.8984 321.265 81.5286 321.265 81.0703ZM327.945 82.6406C328.419 82.6406 328.812 82.5026 329.124 82.2266C329.437 81.9505 329.604 81.6094 329.624 81.2031H331.413C331.393 81.7292 331.229 82.2214 330.921 82.6797C330.614 83.1328 330.197 83.4922 329.671 83.7578C329.145 84.0234 328.577 84.1562 327.968 84.1562C326.786 84.1562 325.848 83.7734 325.156 83.0078C324.463 82.2422 324.117 81.1849 324.117 79.8359V79.6406C324.117 78.3542 324.46 77.3255 325.148 76.5547C325.835 75.7786 326.773 75.3906 327.96 75.3906C328.966 75.3906 329.783 75.6849 330.413 76.2734C331.049 76.8568 331.382 77.625 331.413 78.5781H329.624C329.604 78.0938 329.437 77.6953 329.124 77.3828C328.817 77.0703 328.424 76.9141 327.945 76.9141C327.33 76.9141 326.856 77.138 326.523 77.5859C326.189 78.0286 326.02 78.7031 326.015 79.6094V79.9141C326.015 80.8307 326.179 81.5156 326.507 81.9688C326.841 82.4167 327.32 82.6406 327.945 82.6406ZM334.547 84H332.648V75.5469H334.547V84ZM332.531 73.3516C332.531 73.0599 332.622 72.8177 332.804 72.625C332.992 72.4323 333.257 72.3359 333.601 72.3359C333.945 72.3359 334.211 72.4323 334.398 72.625C334.586 72.8177 334.679 73.0599 334.679 73.3516C334.679 73.638 334.586 73.8776 334.398 74.0703C334.211 74.2578 333.945 74.3516 333.601 74.3516C333.257 74.3516 332.992 74.2578 332.804 74.0703C332.622 73.8776 332.531 73.638 332.531 73.3516ZM340.023 84.1562C338.82 84.1562 337.844 83.7786 337.094 83.0234C336.349 82.263 335.977 81.2526 335.977 79.9922V79.7578C335.977 78.9141 336.138 78.1615 336.461 77.5C336.789 76.8333 337.247 76.3151 337.836 75.9453C338.424 75.5755 339.081 75.3906 339.805 75.3906C340.956 75.3906 341.844 75.7578 342.469 76.4922C343.099 77.2266 343.414 78.2656 343.414 79.6094V80.375H337.891C337.948 81.0729 338.18 81.625 338.586 82.0312C338.997 82.4375 339.513 82.6406 340.133 82.6406C341.003 82.6406 341.711 82.2891 342.258 81.5859L343.281 82.5625C342.943 83.0677 342.49 83.4609 341.922 83.7422C341.359 84.0182 340.727 84.1562 340.023 84.1562ZM339.797 76.9141C339.276 76.9141 338.854 77.0964 338.531 77.4609C338.214 77.8255 338.01 78.3333 337.922 78.9844H341.539V78.8438C341.497 78.2083 341.328 77.7292 341.031 77.4062C340.734 77.0781 340.323 76.9141 339.797 76.9141ZM346.336 75.5469L346.391 76.5234C347.016 75.7682 347.836 75.3906 348.852 75.3906C350.612 75.3906 351.508 76.3984 351.539 78.4141V84H349.641V78.5234C349.641 77.987 349.524 77.5911 349.289 77.3359C349.06 77.0755 348.683 76.9453 348.157 76.9453C347.391 76.9453 346.821 77.2917 346.446 77.9844V84H344.547V75.5469H346.336ZM356.633 82.6406C357.107 82.6406 357.501 82.5026 357.813 82.2266C358.126 81.9505 358.292 81.6094 358.313 81.2031H360.102C360.081 81.7292 359.917 82.2214 359.61 82.6797C359.303 83.1328 358.886 83.4922 358.36 83.7578C357.834 84.0234 357.266 84.1562 356.657 84.1562C355.475 84.1562 354.537 83.7734 353.844 83.0078C353.152 82.2422 352.805 81.1849 352.805 79.8359V79.6406C352.805 78.3542 353.149 77.3255 353.837 76.5547C354.524 75.7786 355.462 75.3906 356.649 75.3906C357.654 75.3906 358.472 75.6849 359.102 76.2734C359.738 76.8568 360.071 77.625 360.102 78.5781H358.313C358.292 78.0938 358.126 77.6953 357.813 77.3828C357.506 77.0703 357.113 76.9141 356.633 76.9141C356.019 76.9141 355.545 77.138 355.212 77.5859C354.878 78.0286 354.709 78.7031 354.704 79.6094V79.9141C354.704 80.8307 354.868 81.5156 355.196 81.9688C355.529 82.4167 356.008 82.6406 356.633 82.6406ZM364.938 84.1562C363.735 84.1562 362.759 83.7786 362.009 83.0234C361.264 82.263 360.892 81.2526 360.892 79.9922V79.7578C360.892 78.9141 361.053 78.1615 361.376 77.5C361.704 76.8333 362.162 76.3151 362.751 75.9453C363.339 75.5755 363.996 75.3906 364.72 75.3906C365.871 75.3906 366.759 75.7578 367.384 76.4922C368.014 77.2266 368.329 78.2656 368.329 79.6094V80.375H362.806C362.863 81.0729 363.095 81.625 363.501 82.0312C363.912 82.4375 364.428 82.6406 365.048 82.6406C365.918 82.6406 366.626 82.2891 367.173 81.5859L368.196 82.5625C367.858 83.0677 367.405 83.4609 366.837 83.7422C366.274 84.0182 365.642 84.1562 364.938 84.1562ZM364.712 76.9141C364.191 76.9141 363.769 77.0964 363.446 77.4609C363.129 77.8255 362.925 78.3333 362.837 78.9844H366.454V78.8438C366.412 78.2083 366.243 77.7292 365.946 77.4062C365.649 77.0781 365.238 76.9141 364.712 76.9141Z" fill="#3C4852"/>
</g>
<defs>
<clipPath id="clip0_914_22398">
<rect width="360" height="175" fill="white"/>
</clipPath>
</defs>
</svg>
